<?xml version="1.0" standalone="no"?><!DOCTYPE svg PUBLIC "-//W3C//DTD SVG 1.1//EN" "http://www.w3.org/Graphics/SVG/1.1/DTD/svg11.dtd"><svg t="1641547457515" class="icon" viewBox="0 0 1024 1024" version="1.1" xmlns="http://www.w3.org/2000/svg" p-id="22784" xmlns:xlink="http://www.w3.org/1999/xlink" width="240" height="240"><defs><style type="text/css"></style></defs><path d="M512 512m-512 0a512 512 0 1 0 1024 0 512 512 0 1 0-1024 0Z" fill="#F8F8F8" p-id="22785"></path><path d="M306.926933 236.9536C361.0624 216.644267 433.5616 204.8 512 204.8c78.404267 0 150.9376 11.844267 205.073067 32.1536 26.965333 10.103467 51.131733 22.971733 69.188266 38.980267 17.988267 15.9744 32.938667 37.9904 32.938667 65.399466v341.333334c0 27.409067-14.9504 49.425067-32.938667 65.399466-18.090667 16.008533-42.257067 28.8768-69.188266 38.980267-54.135467 20.309333-126.634667 32.1536-205.073067 32.1536-78.404267 0-150.9376-11.8784-205.073067-32.1536-26.965333-10.103467-51.131733-22.971733-69.188266-38.980267C219.716267 732.091733 204.8 710.075733 204.8 682.666667V341.333333c0-27.409067 14.916267-49.425067 32.938667-65.399466 18.090667-16.008533 42.257067-28.8768 69.188266-38.980267zM273.066667 430.626133V512c0 0.853333 0.341333 5.802667 9.966933 14.336 9.557333 8.465067 25.3952 17.681067 47.854933 26.112 44.714667 16.725333 108.714667 27.818667 181.111467 27.818667s136.430933-11.0592 181.111467-27.818667c22.459733-8.430933 38.263467-17.646933 47.854933-26.112 9.6256-8.533333 9.966933-13.482667 9.966933-14.336v-81.373867c-10.581333 5.597867-21.947733 10.581333-33.860266 15.086934-54.135467 20.309333-126.634667 32.1536-205.073067 32.1536-78.404267 0-150.9376-11.8784-205.073067-32.1536A290.747733 290.747733 0 0 1 273.066667 430.626133zM750.933333 341.333333c0-0.887467-0.341333-5.802667-9.966933-14.336-9.557333-8.465067-25.3952-17.681067-47.854933-26.112C648.3968 284.16 584.362667 273.066667 512 273.066667s-136.430933 11.0592-181.111467 27.818666c-22.459733 8.430933-38.263467 17.646933-47.854933 26.146134C273.408 335.530667 273.066667 340.445867 273.066667 341.333333c0 0.853333 0.341333 5.802667 9.966933 14.336 9.557333 8.465067 25.3952 17.681067 47.854933 26.112 44.714667 16.725333 108.714667 27.818667 181.111467 27.818667s136.430933-11.0592 181.111467-27.818667c22.459733-8.430933 38.263467-17.646933 47.854933-26.146133 9.6256-8.533333 9.966933-13.448533 9.966933-14.301867zM306.926933 616.379733A290.747733 290.747733 0 0 1 273.066667 601.2928V682.666667c0 0.887467 0.341333 5.802667 9.966933 14.336 9.557333 8.465067 25.3952 17.681067 47.854933 26.112 44.714667 16.725333 108.714667 27.818667 181.111467 27.818666s136.430933-11.0592 181.111467-27.818666c22.459733-8.430933 38.263467-17.646933 47.854933-26.112 9.6256-8.533333 9.966933-13.482667 9.966933-14.336v-81.373867c-10.581333 5.597867-21.947733 10.581333-33.860266 15.086933-54.135467 20.309333-126.634667 32.1536-205.073067 32.1536-78.404267 0-150.9376-11.8784-205.073067-32.1536zM409.6 512a34.133333 34.133333 0 1 1-68.266667 0 34.133333 34.133333 0 0 1 68.266667 0z m-34.133333 204.8a34.133333 34.133333 0 1 0 0-68.266667 34.133333 34.133333 0 0 0 0 68.266667z" fill="#77C4BA" p-id="22786"></path></svg>