<svg width="140" height="144" viewBox="0 0 140 144" fill="none" xmlns="http://www.w3.org/2000/svg">
<ellipse cx="70" cy="96.3839" rx="70" ry="18.1295" fill="#ECEDF0"/>
<path d="M65.0438 24.2945C65.435 24.0451 65.7146 23.6542 65.8242 23.2035C65.9339 22.7528 65.8651 22.2771 65.6322 21.8759L57.0404 7.07478C56.9188 6.86513 56.7559 6.68225 56.5617 6.53715C56.3676 6.39204 56.146 6.2877 55.9105 6.2304C55.675 6.1731 55.4303 6.16403 55.1911 6.20373C54.952 6.24343 54.7233 6.33107 54.5189 6.4614L53.3177 7.22735C53.1133 7.35768 52.9374 7.52798 52.8005 7.72804C52.6636 7.92809 52.5686 8.15376 52.5211 8.39148C52.4737 8.6292 52.4748 8.87406 52.5244 9.11133C52.574 9.34861 52.6711 9.5734 52.8098 9.7722L62.6028 23.8073C62.8682 24.1877 63.2704 24.4508 63.7254 24.5416C64.1803 24.6324 64.6527 24.5439 65.0438 24.2945Z" fill="#FF8259"/>
<path d="M73.1656 21.7359C73.4639 21.6767 73.7278 21.5045 73.9021 21.2553C74.0765 21.0061 74.1478 20.6992 74.1011 20.3986L72.3769 9.3103C72.3525 9.15323 72.2965 9.00274 72.2124 8.86784C72.1284 8.73295 72.0179 8.61645 71.8876 8.52535C71.7574 8.43424 71.6101 8.37042 71.4545 8.33771C71.299 8.305 71.1384 8.30407 70.9825 8.335L70.0661 8.51693C69.9102 8.54786 69.7622 8.60999 69.631 8.69956C69.4997 8.78914 69.388 8.90433 69.3024 9.0382C69.2168 9.17207 69.1591 9.32186 69.1329 9.47858C69.1067 9.6353 69.1124 9.7957 69.1497 9.95015L71.7904 20.8566C71.8619 21.1523 72.0449 21.4089 72.3012 21.5728C72.5575 21.7366 72.8672 21.7951 73.1656 21.7359Z" fill="#FF8259"/>
<path d="M80.0987 25.0449C80.9868 25.4197 82.0939 24.8346 82.6085 23.7184L91.7478 3.89887C92.2938 2.71487 91.9638 1.39673 91.022 0.999233L89.7092 0.445289C88.7673 0.047705 87.5926 0.730704 87.1251 1.94779L79.2985 22.3212C78.8578 23.4686 79.2107 24.6701 80.0987 25.0449Z" fill="#FF8259"/>
<path d="M51.014 131.87C50.37 131.926 49.684 131.982 48.956 132.038V130.932H51.14V130.106H48.956V129.182H48.032V130.106H46.408C46.758 129.644 47.094 129.112 47.402 128.524H51.238V127.628H47.822C47.934 127.376 48.032 127.124 48.13 126.872L47.122 126.704C47.01 127.012 46.884 127.32 46.758 127.628H44.812V128.524H46.31C45.974 129.154 45.596 129.686 45.204 130.134L45.428 130.932H48.032V132.094C47.08 132.15 46.058 132.192 44.994 132.248L45.12 133.144C46.128 133.088 47.108 133.018 48.032 132.962V133.97H48.956V132.892C49.67 132.822 50.356 132.752 51.014 132.696V131.87ZM52.974 130.946H54.794V133.984H55.76V130.946H57.244V130.064H53.044V128.608C54.556 128.44 55.816 128.118 56.852 127.67L56.208 126.914C55.228 127.362 53.856 127.67 52.12 127.838V130.036C52.092 131.296 51.756 132.374 51.14 133.284L51.84 134.012C52.442 133.144 52.82 132.122 52.974 130.946ZM55.676 134.39H46.492V139.654H47.528V139.108H54.64V139.654H55.676V134.39ZM47.528 138.24V137.148H54.64V138.24H47.528ZM47.528 136.336V135.244H54.64V136.336H47.528ZM59.862 127.572V128.552H63.88V129.49C63.866 130.358 63.81 131.184 63.698 131.94H58.924V132.906H63.53C63.348 133.788 63.096 134.586 62.76 135.286C62.004 136.714 60.674 137.848 58.742 138.716L59.302 139.612C61.248 138.772 62.648 137.582 63.516 136.07C63.992 135.174 64.342 134.124 64.566 132.906H65.7V138.002C65.7 138.954 66.148 139.43 67.072 139.43H69.34C69.928 139.43 70.348 139.304 70.614 139.052C70.922 138.744 71.132 137.918 71.244 136.546L70.292 136.238C70.222 137.33 70.096 137.974 69.9 138.198C69.746 138.38 69.494 138.478 69.158 138.478H67.38C66.932 138.478 66.708 138.24 66.708 137.792V132.906H71.048V131.94H64.72C64.818 131.184 64.874 130.358 64.902 129.49V128.552H69.914V127.572H59.862ZM81.212 129.924H83.284C83.228 131.814 82.934 133.466 82.374 134.894C81.814 133.704 81.366 132.304 81.016 130.68C81.072 130.428 81.142 130.176 81.212 129.924ZM81.926 135.888C81.282 137.078 80.428 138.044 79.336 138.8L79.854 139.64C80.904 138.884 81.772 137.946 82.444 136.826C83.144 138.002 83.984 138.954 84.964 139.654L85.51 138.828C84.502 138.142 83.648 137.176 82.92 135.93C83.704 134.264 84.138 132.262 84.208 129.924H85.118V128.958H81.422C81.534 128.342 81.646 127.67 81.73 126.956L80.75 126.788C80.47 129.448 79.91 131.562 79.084 133.13L79.714 133.9C80.008 133.396 80.288 132.822 80.54 132.178C80.918 133.578 81.38 134.81 81.926 135.888ZM75.29 133.326C75.192 133.606 75.08 133.9 74.954 134.208H72.91V135.09H74.562C74.282 135.65 73.96 136.224 73.596 136.84C74.282 137.092 74.926 137.358 75.542 137.624C74.73 138.086 73.736 138.464 72.588 138.772L73.064 139.612C74.464 139.22 75.626 138.702 76.55 138.058C77.376 138.422 78.09 138.8 78.706 139.164L79.252 138.38C78.636 138.044 77.992 137.736 77.32 137.428C78.048 136.756 78.566 135.958 78.874 135.034V134.208H75.948C76.032 133.956 76.13 133.704 76.228 133.438L75.29 133.326ZM76.396 137.036C75.892 136.826 75.36 136.63 74.8 136.434C75.08 136.014 75.332 135.566 75.556 135.09H77.964C77.628 135.818 77.096 136.476 76.396 137.036ZM74.016 127.082L73.218 127.348C73.554 127.88 73.862 128.482 74.156 129.168L74.884 128.832C74.632 128.216 74.352 127.628 74.016 127.082ZM78.272 127.04C78.02 127.628 77.656 128.216 77.208 128.818L77.922 129.182C78.37 128.594 78.72 127.992 79 127.376L78.272 127.04ZM72.938 129.504V130.386H74.926C74.506 131.156 73.75 131.856 72.672 132.486L73.162 133.298C74.366 132.486 75.206 131.534 75.668 130.428V133.088H76.606V131.268C77.11 131.604 77.712 132.052 78.412 132.612L78.93 131.828C78.146 131.352 77.362 130.918 76.606 130.54V130.386H79.154V129.504H76.606V126.83H75.668V129.504H72.938ZM88.296 139.528C89.08 139.528 89.472 139.108 89.472 138.282V134.208C89.906 134.012 90.34 133.816 90.774 133.592V132.598C90.354 132.822 89.92 133.032 89.472 133.228V130.47H90.816V129.504H89.472V126.858H88.492V129.504H86.812V130.47H88.492V133.634C87.876 133.858 87.232 134.054 86.588 134.208L86.84 135.188C87.386 135.02 87.932 134.824 88.492 134.614V138.03C88.492 138.436 88.31 138.646 87.96 138.646C87.624 138.646 87.26 138.618 86.896 138.576L87.106 139.528H88.296ZM92.482 133.34H95.338V135.062H93V139.654H93.938V138.968H97.732V139.654H98.67V135.062H96.318V133.34H99.314V132.43H96.318V130.778H98.95V127.376H91.572V131.758C91.558 134.698 91.054 137.106 90.06 138.954L90.844 139.654C91.768 137.834 92.314 135.734 92.482 133.34ZM95.338 130.778V132.43H92.538C92.538 132.206 92.552 131.982 92.552 131.758V130.778H95.338ZM93.938 138.072V135.958H97.732V138.072H93.938ZM97.97 128.314V129.868H92.552V128.314H97.97Z" fill="#27272E"/>
<path d="M72.9727 60.1348V108.376L35.5176 92.198L35.6962 44.1313L72.9727 60.1348Z" fill="#FF8259"/>
<path d="M72.9734 60.1635V108.405L109.801 92.6108V44.6108L72.9734 60.1635Z" fill="#FF9E7E"/>
<path d="M73.0003 60.0979L109.8 44.4979L73.2957 32.8979L35.4004 44.0979L73.0003 60.0979Z" fill="url(#paint0_linear_3479_19234)"/>
<path d="M73.0003 60.0979L73.2957 32.8979L35.4004 44.0979L73.0003 60.0979Z" fill="url(#paint1_linear_3479_19234)"/>
<path d="M25.2895 52.6604L62.9833 70.9566C63.0846 71.0057 63.1992 71.0203 63.3096 70.9979C63.42 70.9756 63.5199 70.9177 63.5942 70.833L72.9731 60.1349L35.5179 44.0547L25.2057 51.7868C25.1351 51.8396 25.0794 51.9098 25.0438 51.9904C25.0082 52.071 24.9939 52.1594 25.0024 52.2471C25.0108 52.3349 25.0416 52.419 25.0919 52.4913C25.1422 52.5637 25.2103 52.6219 25.2895 52.6604Z" fill="#FFC9AA"/>
<path d="M109.8 44.4976L120.831 53.8511C120.894 53.9084 120.942 53.9807 120.971 54.0614C120.999 54.1421 121.007 54.2286 120.994 54.3131C120.98 54.3976 120.946 54.4774 120.894 54.5453C120.842 54.6132 120.774 54.667 120.695 54.7019L83.4665 71.3171C83.3671 71.3615 83.2561 71.3732 83.1497 71.3505C83.0432 71.3277 82.9467 71.2718 82.8741 71.1907L72.973 60.1344L109.8 44.4976Z" fill="#FFC9AA"/>
<path d="M73.2401 32.8979L109.8 44.4979L114.564 42.9458C114.66 42.9205 114.746 42.8697 114.808 42.8007C114.87 42.7317 114.905 42.6479 114.909 42.5613C114.913 42.4748 114.886 42.3898 114.83 42.3186C114.774 42.2473 114.694 42.1934 114.6 42.1645L81.5587 32.2214C81.4882 32.1997 81.4123 32.1928 81.3375 32.2014L73.2401 32.8979Z" fill="#FEBEA9"/>
<path d="M73.2401 32.8981L35.5603 44.05L30.9498 43.2628C30.8413 43.2426 30.7422 43.188 30.6672 43.1071C30.5922 43.0262 30.5451 42.9234 30.5331 42.8137C30.5211 42.704 30.5446 42.5934 30.6003 42.4981C30.656 42.4029 30.7409 42.3281 30.8423 42.2848L66.2881 32.1392C66.3652 32.1064 66.4491 32.0929 66.5326 32.1L73.2401 32.8981Z" fill="#FEBEA9"/>
<path d="M82.5831 87.9642C85.1249 87.1075 86.5781 85.0584 86.5781 82.3402V82.3284C86.5781 79.669 85.1072 78.6232 82.5831 79.474L79.4 80.5469V89.0371L82.5831 87.9642ZM82.3831 86.7548L80.918 87.2487V81.312L82.3831 80.8182C84.0482 80.257 85.0307 81.0084 85.0307 82.8735V82.8853C85.0307 84.7916 84.0717 86.1857 82.3831 86.7548ZM89.8789 85.611C90.7262 85.3254 91.4087 84.7306 91.7617 83.9879L91.8617 83.9542V84.8367L93.3091 84.3489V79.9538C93.3091 78.5946 92.3795 78.1078 90.7262 78.665C89.1964 79.1807 88.1609 80.2475 88.0197 81.3777L88.0138 81.4326L89.3964 80.9666L89.4023 80.9411C89.5494 80.4679 89.9848 80.0799 90.6556 79.8538C91.444 79.5881 91.8617 79.8003 91.8617 80.4416V80.9947L90.2084 81.652C88.6433 82.2736 87.7667 83.2399 87.7667 84.3872V84.399C87.7667 85.5698 88.6551 86.0235 89.8789 85.611ZM90.3261 84.3365C89.6789 84.5546 89.214 84.3877 89.214 83.8405V83.8287C89.214 83.2992 89.5965 82.8702 90.4143 82.5416L91.8617 81.9596V82.4774C91.8617 83.2423 91.2086 84.039 90.3261 84.3365ZM97.5924 82.9346C97.8749 82.8394 98.1455 82.7246 98.3573 82.612V81.4824C98.1808 81.5595 98.069 81.6031 97.8631 81.6725C97.2512 81.8787 96.9982 81.6933 96.9982 81.052V77.8101L98.3573 77.352V76.2164L96.9982 76.6745V75.0977L95.5096 75.5995V77.1763L94.5094 77.5134V78.649L95.5096 78.3118V81.9009C95.5096 83.1424 96.1156 83.4323 97.5924 82.9346ZM101.57 81.6704C102.417 81.3848 103.1 80.79 103.453 80.0474L103.553 80.0136V80.8962L105 80.4083V76.0132C105 74.6541 104.07 74.1672 102.417 74.7245C100.887 75.2401 99.8518 76.307 99.7106 77.4372L99.7047 77.4921L101.087 77.0261L101.093 77.0005C101.24 76.5273 101.676 76.1393 102.346 75.9133C103.135 75.6475 103.553 75.8597 103.553 76.5011V77.0541L101.899 77.7114C100.334 78.3331 99.4576 79.2993 99.4576 80.4466V80.4584C99.4576 81.6293 100.346 82.0829 101.57 81.6704ZM102.017 80.3959C101.37 80.6141 100.905 80.4471 100.905 79.8999V79.8882C100.905 79.3586 101.287 78.9297 102.105 78.6011L103.553 78.0191V78.5368C103.553 79.3017 102.9 80.0984 102.017 80.3959Z" fill="white"/>
<defs>
<linearGradient id="paint0_linear_3479_19234" x1="46.6" y1="34.2108" x2="51.4" y2="62.6108" gradientUnits="userSpaceOnUse">
<stop stop-color="#FF9C72"/>
<stop offset="1" stop-color="#E44500"/>
</linearGradient>
<linearGradient id="paint1_linear_3479_19234" x1="65.4" y1="35.0108" x2="74.6" y2="63.0108" gradientUnits="userSpaceOnUse">
<stop stop-color="#FF9C72"/>
<stop offset="1" stop-color="#E44500"/>
</linearGradient>
</defs>
</svg>
