<svg width="12" height="13" viewBox="0 0 12 13" fill="none" xmlns="http://www.w3.org/2000/svg">
<g opacity="0.7">
<path d="M3.69231 5.13333C3.94721 5.13333 4.15385 5.34227 4.15385 5.6V10.2C4.15385 10.4577 3.94721 10.6667 3.69231 10.6667C3.43741 10.6667 3.23077 10.4577 3.23077 10.2V5.6C3.23077 5.34227 3.43741 5.13333 3.69231 5.13333Z" fill="#27272E"/>
<path d="M6 5.13333C6.2549 5.13333 6.46154 5.34227 6.46154 5.6V10.2C6.46154 10.4577 6.2549 10.6667 6 10.6667C5.7451 10.6667 5.53846 10.4577 5.53846 10.2V5.6C5.53846 5.34227 5.7451 5.13333 6 5.13333Z" fill="#27272E"/>
<path d="M8.76923 5.6C8.76923 5.34227 8.56259 5.13333 8.30769 5.13333C8.05279 5.13333 7.84615 5.34227 7.84615 5.6V10.2C7.84615 10.4577 8.05279 10.6667 8.30769 10.6667C8.56259 10.6667 8.76923 10.4577 8.76923 10.2V5.6Z" fill="#27272E"/>
<path fill-rule="evenodd" clip-rule="evenodd" d="M12 2.8C12 3.31547 11.5867 3.73333 11.0769 3.73333H10.6154V11.1333C10.6154 12.1643 9.78883 13 8.76923 13H3.23077C2.21117 13 1.38462 12.1643 1.38462 11.1333V3.73333H0.923077C0.413276 3.73333 0 3.31547 0 2.8V1.86667C0 1.3512 0.413276 0.933333 0.923077 0.933333H4.15385C4.15385 0.417868 4.56712 0 5.07692 0H6.92308C7.43288 0 7.84615 0.417868 7.84615 0.933333H11.0769C11.5867 0.933333 12 1.3512 12 1.86667V2.8ZM2.41665 3.73333L2.30769 3.78842V11.1333C2.30769 11.6488 2.72097 12.0667 3.23077 12.0667H8.76923C9.27903 12.0667 9.69231 11.6488 9.69231 11.1333V3.78842L9.58335 3.73333H2.41665ZM0.923077 2.8V1.86667H11.0769V2.8H0.923077Z" fill="#27272E"/>
</g>
</svg>
