<svg width="22" height="22" viewBox="0 0 22 22" fill="none" xmlns="http://www.w3.org/2000/svg">
<path d="M14.638 9.5H13.4455V5.75C13.4455 5.3375 13.108 5 12.6955 5H9.69551C9.28301 5 8.94551 5.3375 8.94551 5.75V9.5H7.75301C7.08551 9.5 6.74801 10.31 7.22051 10.7825L10.663 14.225C10.9555 14.5175 11.428 14.5175 11.7205 14.225L15.163 10.7825C15.6355 10.31 15.3055 9.5 14.638 9.5Z" fill="#FF8259"/>
<path fill-rule="evenodd" clip-rule="evenodd" d="M5 12.4C5 12.1791 5.17909 12 5.4 12H5.62857C5.84949 12 6.02857 12.1791 6.02857 12.4V15.6957H15.9714V12.4C15.9714 12.1791 16.1505 12 16.3714 12H16.6C16.8209 12 17 12.1791 17 12.4V17H5V12.4Z" fill="#FF8259"/>
</svg>
