<svg width="164" height="178" viewBox="0 0 164 178" fill="none" xmlns="http://www.w3.org/2000/svg">
<ellipse cx="82" cy="122" rx="82" ry="21" fill="#ECEDF0"/>
<path d="M81.9659 75.4047V135.706L35.147 115.484L35.3703 55.4004L81.9659 75.4047Z" fill="#FF8259"/>
<path d="M81.9668 75.4408V135.742L128.001 116V56L81.9668 75.4408Z" fill="#FF9E7E"/>
<path d="M82.0004 75.3589L128 55.8589L82.3696 41.3589L35.0005 55.3589L82.0004 75.3589Z" fill="url(#paint0_linear_236_11652)"/>
<path d="M82.0004 75.3589L82.3696 41.3589L35.0005 55.3589L82.0004 75.3589Z" fill="url(#paint1_linear_236_11652)"/>
<path d="M22.3619 66.0618L69.4791 88.932C69.6057 88.9935 69.749 89.0117 69.887 88.9837C70.0249 88.9558 70.1499 88.8834 70.2427 88.7776L81.9664 75.4049L35.1474 55.3047L22.2571 64.9698C22.1689 65.0359 22.0993 65.1235 22.0548 65.2243C22.0103 65.3251 21.9924 65.4356 22.0029 65.5453C22.0135 65.6549 22.052 65.76 22.1149 65.8505C22.1778 65.9409 22.2628 66.0137 22.3619 66.0618Z" fill="#FFC9AA"/>
<path d="M128 55.8586L141.788 67.5505C141.868 67.6222 141.928 67.7126 141.963 67.8135C141.999 67.9143 142.009 68.0225 141.992 68.1281C141.975 68.2337 141.932 68.3335 141.867 68.4184C141.802 68.5032 141.717 68.5705 141.619 68.614L95.0831 89.3831C94.9589 89.4386 94.8202 89.4532 94.6871 89.4248C94.5541 89.3964 94.4334 89.3265 94.3427 89.2251L81.9663 75.4047L128 55.8586Z" fill="#FFC9AA"/>
<path d="M82.3002 41.3591L128 55.8591L133.955 53.919C134.075 53.8873 134.182 53.8239 134.26 53.7376C134.337 53.6513 134.382 53.5466 134.387 53.4384C134.392 53.3302 134.357 53.224 134.288 53.1349C134.218 53.0458 134.117 52.9785 134 52.9423L92.6985 40.5134C92.6103 40.4863 92.5155 40.4778 92.4219 40.4884L82.3002 41.3591Z" fill="#FEBEA9"/>
<path d="M82.3001 41.3589L35.2005 55.2987L29.4373 54.3148C29.3017 54.2895 29.1778 54.2212 29.0841 54.1201C28.9903 54.019 28.9315 53.8904 28.9164 53.7533C28.9014 53.6162 28.9308 53.4779 29.0004 53.3589C29.0701 53.2398 29.1761 53.1463 29.303 53.0922L73.6102 40.4101C73.7066 40.3692 73.8114 40.3524 73.9158 40.3611L82.3001 41.3589Z" fill="#FEBEA9"/>
<path d="M71.3047 31.1145C71.7936 30.8027 72.1431 30.3141 72.2802 29.7507C72.4172 29.1873 72.3312 28.5927 72.0402 28.0913L61.3005 9.58994C61.1484 9.32787 60.9448 9.09928 60.7021 8.91789C60.4594 8.73651 60.1825 8.60609 59.888 8.53446C59.5936 8.46284 59.2877 8.4515 58.9888 8.50112C58.6899 8.55074 58.4041 8.6603 58.1486 8.82321L56.647 9.78065C56.3915 9.94355 56.1716 10.1564 56.0005 10.4065C55.8294 10.6566 55.7106 10.9387 55.6513 11.2358C55.592 11.533 55.5934 11.839 55.6554 12.1356C55.7175 12.4322 55.8388 12.7132 56.0122 12.9617L68.2533 30.5055C68.5851 30.981 69.0879 31.3099 69.6566 31.4234C70.2252 31.5369 70.8157 31.4262 71.3047 31.1145Z" fill="#FF8259"/>
<path d="M81.4569 27.916C81.8297 27.842 82.1596 27.6267 82.3775 27.3152C82.5954 27.0037 82.6845 26.6201 82.6262 26.2444L80.4709 12.3841C80.4404 12.1878 80.3705 11.9996 80.2654 11.831C80.1603 11.6624 80.0222 11.5168 79.8594 11.4029C79.6966 11.289 79.5124 11.2092 79.318 11.1684C79.1235 11.1275 78.9228 11.1263 78.7279 11.165L77.5824 11.3924C77.3876 11.431 77.2026 11.5087 77.0386 11.6207C76.8745 11.7326 76.7348 11.8766 76.6278 12.044C76.5208 12.2113 76.4488 12.3985 76.416 12.5944C76.3832 12.7903 76.3903 12.9908 76.437 13.1839L79.7378 26.817C79.8272 27.1866 80.056 27.5073 80.3763 27.7121C80.6967 27.9169 81.0839 27.99 81.4569 27.916Z" fill="#FF8259"/>
<path d="M90.1232 32.052C91.2332 32.5205 92.6171 31.7891 93.2605 30.3938L104.685 5.61955C105.367 4.13956 104.954 2.49188 103.777 1.99502L102.136 1.30259C100.959 0.805613 99.4905 1.65936 98.9062 3.18071L89.123 28.6473C88.572 30.0816 89.0132 31.5835 90.1232 32.052Z" fill="#FF8259"/>
<path d="M61.014 165.975C60.37 166.031 59.684 166.087 58.956 166.143V165.037H61.14V164.211H58.956V163.287H58.032V164.211H56.408C56.758 163.749 57.094 163.217 57.402 162.629H61.238V161.733H57.822C57.934 161.481 58.032 161.229 58.13 160.977L57.122 160.809C57.01 161.117 56.884 161.425 56.758 161.733H54.812V162.629H56.31C55.974 163.259 55.596 163.791 55.204 164.239L55.428 165.037H58.032V166.199C57.08 166.255 56.058 166.297 54.994 166.353L55.12 167.249C56.128 167.193 57.108 167.123 58.032 167.067V168.075H58.956V166.997C59.67 166.927 60.356 166.857 61.014 166.801V165.975ZM62.974 165.051H64.794V168.089H65.76V165.051H67.244V164.169H63.044V162.713C64.556 162.545 65.816 162.223 66.852 161.775L66.208 161.019C65.228 161.467 63.856 161.775 62.12 161.943V164.141C62.092 165.401 61.756 166.479 61.14 167.389L61.84 168.117C62.442 167.249 62.82 166.227 62.974 165.051ZM65.676 168.495H56.492V173.759H57.528V173.213H64.64V173.759H65.676V168.495ZM57.528 172.345V171.253H64.64V172.345H57.528ZM57.528 170.441V169.349H64.64V170.441H57.528ZM69.862 161.677V162.657H73.88V163.595C73.866 164.463 73.81 165.289 73.698 166.045H68.924V167.011H73.53C73.348 167.893 73.096 168.691 72.76 169.391C72.004 170.819 70.674 171.953 68.742 172.821L69.302 173.717C71.248 172.877 72.648 171.687 73.516 170.175C73.992 169.279 74.342 168.229 74.566 167.011H75.7V172.107C75.7 173.059 76.148 173.535 77.072 173.535H79.34C79.928 173.535 80.348 173.409 80.614 173.157C80.922 172.849 81.132 172.023 81.244 170.651L80.292 170.343C80.222 171.435 80.096 172.079 79.9 172.303C79.746 172.485 79.494 172.583 79.158 172.583H77.38C76.932 172.583 76.708 172.345 76.708 171.897V167.011H81.048V166.045H74.72C74.818 165.289 74.874 164.463 74.902 163.595V162.657H79.914V161.677H69.862ZM91.212 164.029H93.284C93.228 165.919 92.934 167.571 92.374 168.999C91.814 167.809 91.366 166.409 91.016 164.785C91.072 164.533 91.142 164.281 91.212 164.029ZM91.926 169.993C91.282 171.183 90.428 172.149 89.336 172.905L89.854 173.745C90.904 172.989 91.772 172.051 92.444 170.931C93.144 172.107 93.984 173.059 94.964 173.759L95.51 172.933C94.502 172.247 93.648 171.281 92.92 170.035C93.704 168.369 94.138 166.367 94.208 164.029H95.118V163.063H91.422C91.534 162.447 91.646 161.775 91.73 161.061L90.75 160.893C90.47 163.553 89.91 165.667 89.084 167.235L89.714 168.005C90.008 167.501 90.288 166.927 90.54 166.283C90.918 167.683 91.38 168.915 91.926 169.993ZM85.29 167.431C85.192 167.711 85.08 168.005 84.954 168.313H82.91V169.195H84.562C84.282 169.755 83.96 170.329 83.596 170.945C84.282 171.197 84.926 171.463 85.542 171.729C84.73 172.191 83.736 172.569 82.588 172.877L83.064 173.717C84.464 173.325 85.626 172.807 86.55 172.163C87.376 172.527 88.09 172.905 88.706 173.269L89.252 172.485C88.636 172.149 87.992 171.841 87.32 171.533C88.048 170.861 88.566 170.063 88.874 169.139V168.313H85.948C86.032 168.061 86.13 167.809 86.228 167.543L85.29 167.431ZM86.396 171.141C85.892 170.931 85.36 170.735 84.8 170.539C85.08 170.119 85.332 169.671 85.556 169.195H87.964C87.628 169.923 87.096 170.581 86.396 171.141ZM84.016 161.187L83.218 161.453C83.554 161.985 83.862 162.587 84.156 163.273L84.884 162.937C84.632 162.321 84.352 161.733 84.016 161.187ZM88.272 161.145C88.02 161.733 87.656 162.321 87.208 162.923L87.922 163.287C88.37 162.699 88.72 162.097 89 161.481L88.272 161.145ZM82.938 163.609V164.491H84.926C84.506 165.261 83.75 165.961 82.672 166.591L83.162 167.403C84.366 166.591 85.206 165.639 85.668 164.533V167.193H86.606V165.373C87.11 165.709 87.712 166.157 88.412 166.717L88.93 165.933C88.146 165.457 87.362 165.023 86.606 164.645V164.491H89.154V163.609H86.606V160.935H85.668V163.609H82.938ZM98.296 173.633C99.08 173.633 99.472 173.213 99.472 172.387V168.313C99.906 168.117 100.34 167.921 100.774 167.697V166.703C100.354 166.927 99.92 167.137 99.472 167.333V164.575H100.816V163.609H99.472V160.963H98.492V163.609H96.812V164.575H98.492V167.739C97.876 167.963 97.232 168.159 96.588 168.313L96.84 169.293C97.386 169.125 97.932 168.929 98.492 168.719V172.135C98.492 172.541 98.31 172.751 97.96 172.751C97.624 172.751 97.26 172.723 96.896 172.681L97.106 173.633H98.296ZM102.482 167.445H105.338V169.167H103V173.759H103.938V173.073H107.732V173.759H108.67V169.167H106.318V167.445H109.314V166.535H106.318V164.883H108.95V161.481H101.572V165.863C101.558 168.803 101.054 171.211 100.06 173.059L100.844 173.759C101.768 171.939 102.314 169.839 102.482 167.445ZM105.338 164.883V166.535H102.538C102.538 166.311 102.552 166.087 102.552 165.863V164.883H105.338ZM103.938 172.177V170.063H107.732V172.177H103.938ZM107.97 162.419V163.973H102.552V162.419H107.97Z" fill="#27272E"/>
<path d="M93.9789 110.192C97.1561 109.121 98.9727 106.559 98.9727 103.162V103.147C98.9727 99.8225 97.134 98.5154 93.9789 99.5788L90 100.92V111.533L93.9789 110.192ZM93.7288 108.68L91.8975 109.297V101.876L93.7288 101.259C95.8102 100.558 97.0384 101.497 97.0384 103.828V103.843C97.0384 106.226 95.8396 107.968 93.7288 108.68ZM103.099 107.25C104.158 106.893 105.011 106.15 105.452 105.221L105.577 105.179V106.282L107.386 105.672V100.179C107.386 98.4796 106.224 97.871 104.158 98.5676C102.245 99.2122 100.951 100.546 100.775 101.958L100.767 102.027L102.496 101.445L102.503 101.413C102.687 100.821 103.231 100.336 104.069 100.054C105.055 99.7214 105.577 99.9867 105.577 100.788V101.48L103.51 102.301C101.554 103.078 100.458 104.286 100.458 105.72V105.735C100.458 107.199 101.569 107.766 103.099 107.25ZM103.658 105.657C102.849 105.93 102.268 105.721 102.268 105.037V105.022C102.268 104.36 102.746 103.824 103.768 103.413L105.577 102.686V103.333C105.577 104.289 104.761 105.285 103.658 105.657ZM112.741 103.905C113.094 103.786 113.432 103.642 113.697 103.501V102.089C113.476 102.186 113.336 102.24 113.079 102.327C112.314 102.585 111.998 102.353 111.998 101.551V97.499L113.697 96.9263V95.5069L111.998 96.0795V94.1085L110.137 94.7356V96.7067L108.887 97.1281V98.5476L110.137 98.1261V102.612C110.137 104.164 110.895 104.527 112.741 103.905ZM117.712 102.324C118.771 101.967 119.624 101.224 120.066 100.296L120.191 100.253V101.357L122 100.747V95.2528C122 93.5539 120.838 92.9454 118.771 93.6419C116.859 94.2865 115.565 95.62 115.388 97.0328L115.381 97.1015L117.109 96.5189L117.117 96.487C117.3 95.8955 117.845 95.4105 118.683 95.1279C119.669 94.7957 120.191 95.061 120.191 95.8627V96.554L118.124 97.3756C116.168 98.1527 115.072 99.3605 115.072 100.795V100.809C115.072 102.273 116.182 102.84 117.712 102.324ZM118.271 100.731C117.462 101.004 116.881 100.795 116.881 100.111V100.097C116.881 99.4346 117.359 98.8984 118.382 98.4877L120.191 97.7602V98.4074C120.191 99.3635 119.374 100.359 118.271 100.731Z" fill="white"/>
<defs>
<linearGradient id="paint0_linear_236_11652" x1="49" y1="43" x2="55" y2="78.5" gradientUnits="userSpaceOnUse">
<stop stop-color="#FF9C72"/>
<stop offset="1" stop-color="#E44500"/>
</linearGradient>
<linearGradient id="paint1_linear_236_11652" x1="72.5" y1="44" x2="84" y2="79" gradientUnits="userSpaceOnUse">
<stop stop-color="#FF9C72"/>
<stop offset="1" stop-color="#E44500"/>
</linearGradient>
</defs>
</svg>
