<svg width="144" height="126" viewBox="0 0 144 126" fill="none" xmlns="http://www.w3.org/2000/svg">
<ellipse cx="72" cy="107.213" rx="72" ry="18.439" fill="#ECEDF0"/>
<path d="M71.9701 66.3001V119.248L30.8608 101.491L31.0569 48.7354L71.9701 66.3001Z" fill="#FF8259"/>
<path d="M71.9707 66.3317V119.279L112.391 101.945V49.2617L71.9707 66.3317Z" fill="#FF9E7E"/>
<path d="M72.0002 66.2597L112.39 49.1377L72.3243 36.406L30.7319 48.6987L72.0002 66.2597Z" fill="url(#paint0_linear_236_11652)"/>
<path d="M72.0002 66.2597L72.3243 36.406L30.7319 48.6987L72.0002 66.2597Z" fill="url(#paint1_linear_236_11652)"/>
<path d="M19.6347 58.0964L61.0058 78.1776C61.117 78.2315 61.2429 78.2475 61.364 78.223C61.4851 78.1985 61.5949 78.1349 61.6763 78.0419L71.9703 66.3001L30.8609 48.6511L19.5426 57.1376C19.4652 57.1956 19.4041 57.2725 19.365 57.361C19.3259 57.4495 19.3102 57.5466 19.3195 57.6428C19.3287 57.7391 19.3626 57.8314 19.4178 57.9108C19.473 57.9903 19.5477 58.0542 19.6347 58.0964Z" fill="#FFC9AA"/>
<path d="M112.39 49.1375L124.497 59.4035C124.567 59.4665 124.619 59.5458 124.651 59.6344C124.682 59.7229 124.691 59.8179 124.676 59.9106C124.661 60.0034 124.623 60.091 124.566 60.1655C124.509 60.24 124.434 60.2991 124.348 60.3373L83.4874 78.5736C83.3783 78.6223 83.2566 78.6351 83.1397 78.6102C83.0229 78.5852 82.917 78.5238 82.8373 78.4348L71.9702 66.2999L112.39 49.1375Z" fill="#FFC9AA"/>
<path d="M72.2636 36.4063L112.39 49.1381L117.619 47.4345C117.725 47.4068 117.819 47.351 117.887 47.2753C117.955 47.1995 117.994 47.1076 117.998 47.0126C118.003 46.9176 117.972 46.8243 117.911 46.7461C117.85 46.6679 117.761 46.6087 117.658 46.577L81.3938 35.6638C81.3163 35.64 81.2331 35.6325 81.1509 35.6419L72.2636 36.4063Z" fill="#FEBEA9"/>
<path d="M72.2636 36.4061L30.9078 48.646L25.8474 47.782C25.7284 47.7598 25.6196 47.6999 25.5373 47.6111C25.4549 47.5223 25.4033 47.4094 25.3901 47.289C25.3769 47.1687 25.4027 47.0472 25.4639 46.9427C25.525 46.8382 25.6181 46.7561 25.7295 46.7086L64.6334 35.5731C64.718 35.5371 64.8101 35.5224 64.9017 35.5301L72.2636 36.4061Z" fill="#FEBEA9"/>
<path d="M62.6086 27.4111C63.0379 27.1373 63.3447 26.7083 63.4651 26.2136C63.5854 25.7189 63.5099 25.1969 63.2544 24.7565L53.8244 8.51147C53.6908 8.28136 53.5121 8.08064 53.299 7.92138C53.0859 7.76212 52.8427 7.6476 52.5842 7.58471C52.3257 7.52182 52.0571 7.51187 51.7946 7.55544C51.5322 7.59901 51.2812 7.6952 51.0569 7.83824L49.7384 8.67892C49.5141 8.82196 49.321 9.00888 49.1708 9.22845C49.0205 9.44802 48.9162 9.69571 48.8642 9.95662C48.8121 10.2175 48.8133 10.4863 48.8678 10.7467C48.9222 11.0071 49.0288 11.2538 49.181 11.472L59.9293 26.8763C60.2207 27.2939 60.6622 27.5827 61.1615 27.6823C61.6608 27.782 62.1792 27.6848 62.6086 27.4111Z" fill="#FF8259"/>
<path d="M71.523 24.6026C71.8504 24.5376 72.14 24.3486 72.3313 24.0751C72.5227 23.8016 72.6009 23.4648 72.5497 23.1349L70.6573 10.9648C70.6305 10.7925 70.5691 10.6273 70.4768 10.4792C70.3845 10.3312 70.2633 10.2033 70.1203 10.1033C69.9773 10.0033 69.8156 9.93328 69.6449 9.89737C69.4742 9.86147 69.298 9.86046 69.1269 9.8944L68.121 10.0941C67.95 10.128 67.7875 10.1962 67.6435 10.2945C67.4995 10.3928 67.3768 10.5193 67.2828 10.6662C67.1889 10.8131 67.1256 10.9775 67.0968 11.1495C67.068 11.3216 67.0743 11.4976 67.1153 11.6671L70.0136 23.6376C70.092 23.9621 70.2929 24.2438 70.5742 24.4236C70.8555 24.6035 71.1955 24.6676 71.523 24.6026V24.6026Z" fill="#FF8259"/>
<path d="M79.1328 28.2342C80.1074 28.6455 81.3225 28.0033 81.8874 26.7782L91.9183 5.02518C92.5175 3.72567 92.1553 2.27893 91.1216 1.84266L89.6808 1.23468C88.647 0.798307 87.3577 1.54794 86.8446 2.88376L78.2545 25.2447C77.7707 26.5041 78.1581 27.8228 79.1328 28.2342Z" fill="#FF8259"/>
<path d="M82.518 96.8448C85.3078 95.9045 86.9028 93.6556 86.9028 90.6721V90.6592C86.9028 87.7403 85.2884 86.5926 82.518 87.5264L79.0244 88.7039V98.0224L82.518 96.8448ZM82.2985 95.5175L80.6905 96.0595V89.5437L82.2985 89.0017C84.126 88.3857 85.2045 89.2104 85.2045 91.2575V91.2704C85.2045 93.3627 84.1518 94.8928 82.2985 95.5175ZM90.5256 94.2621C91.4555 93.9486 92.2046 93.2957 92.5921 92.4806L92.7019 92.4436V93.4123L94.2905 92.8768V88.0529C94.2905 86.5612 93.2702 86.0268 91.4555 86.6385C89.7765 87.2044 88.64 88.3753 88.485 89.6158L88.4785 89.6761L89.9961 89.1646L90.0025 89.1366C90.164 88.6172 90.6419 88.1914 91.378 87.9432C92.2434 87.6515 92.7019 87.8845 92.7019 88.5884V89.1954L90.8873 89.9168C89.1695 90.5991 88.2073 91.6596 88.2073 92.9189V92.9318C88.2073 94.2169 89.1824 94.7148 90.5256 94.2621ZM91.0164 92.8632C90.3061 93.1026 89.7959 92.9194 89.7959 92.3188V92.3059C89.7959 91.7247 90.2157 91.2539 91.1133 90.8932L92.7019 90.2545V90.8227C92.7019 91.6622 91.9851 92.5367 91.0164 92.8632ZM98.9917 91.3245C99.3017 91.22 99.5987 91.0941 99.8312 90.9705V89.7306C99.6375 89.8153 99.5148 89.8631 99.2888 89.9393C98.6172 90.1657 98.3395 89.9622 98.3395 89.2583V85.7001L99.8312 85.1973V83.951L98.3395 84.4538V82.7231L96.7057 83.2738V85.0045L95.6079 85.3745V86.6208L96.7057 86.2508V90.19C96.7057 91.5526 97.3708 91.8709 98.9917 91.3245ZM103.357 89.9371C104.287 89.6236 105.036 88.9708 105.424 88.1556L105.533 88.1186V89.0873L107.122 88.5518V83.7279C107.122 82.2362 106.102 81.7018 104.287 82.3135C102.608 82.8794 101.471 84.0503 101.316 85.2908L101.31 85.3511L102.828 84.8396L102.834 84.8116C102.995 84.2922 103.473 83.8664 104.21 83.6182C105.075 83.3266 105.533 83.5595 105.533 84.2634V84.8704L103.719 85.5918C102.001 86.2741 101.039 87.3346 101.039 88.5939V88.6068C101.039 89.8919 102.014 90.3898 103.357 89.9371ZM103.848 88.5382C103.138 88.7776 102.627 88.5944 102.627 87.9939V87.9809C102.627 87.3997 103.047 86.9289 103.945 86.5682L105.533 85.9295V86.4977C105.533 87.3373 104.817 88.2117 103.848 88.5382Z" fill="white"/>
<defs>
<linearGradient id="paint0_linear_236_11652" x1="43.0242" y1="37.847" x2="48.2925" y2="69.0177" gradientUnits="userSpaceOnUse">
<stop stop-color="#FF9C72"/>
<stop offset="1" stop-color="#E44500"/>
</linearGradient>
<linearGradient id="paint1_linear_236_11652" x1="63.6583" y1="38.725" x2="73.7559" y2="69.4567" gradientUnits="userSpaceOnUse">
<stop stop-color="#FF9C72"/>
<stop offset="1" stop-color="#E44500"/>
</linearGradient>
</defs>
</svg>
