<svg width="20" height="20" viewBox="0 0 20 20" fill="none" xmlns="http://www.w3.org/2000/svg">
<path d="M15.5 10C15.5 10.0539 15.4437 10.246 15.1615 10.551C14.8995 10.8342 14.503 11.1482 13.9932 11.4417C12.9743 12.0282 11.5595 12.5 10 12.5C8.4405 12.5 7.02568 12.0282 6.0068 11.4417C5.497 11.1482 5.10047 10.8342 4.8385 10.551C4.55628 10.246 4.5 10.0539 4.5 10C4.5 9.94607 4.55628 9.75396 4.8385 9.44896C5.10047 9.16584 5.497 8.85179 6.0068 8.55834C7.02568 7.97185 8.4405 7.5 10 7.5C11.5595 7.5 12.9743 7.97185 13.9932 8.55834C14.503 8.85179 14.8995 9.16584 15.1615 9.44896C15.4437 9.75396 15.5 9.94607 15.5 10Z" stroke="#68686D"/>
<circle cx="10" cy="10" r="2.5" stroke="#68686D"/>
</svg>
