<svg width="16" height="16" viewBox="0 0 16 16" fill="none" xmlns="http://www.w3.org/2000/svg">
<path fill-rule="evenodd" clip-rule="evenodd" d="M8.5 2C8.5 1.72386 8.27614 1.5 8 1.5C7.72386 1.5 7.5 1.72386 7.5 2V8.79289L5.02006 6.31295C4.8248 6.11769 4.50821 6.11769 4.31295 6.31295C4.11769 6.50821 4.11769 6.8248 4.31295 7.02006L7.64628 10.3534C7.64634 10.3534 7.64639 10.3535 7.64645 10.3536C7.67291 10.38 7.70233 10.4035 7.73416 10.4236C7.81117 10.472 7.90231 10.5 8 10.5C8.14355 10.5 8.27297 10.4395 8.36415 10.3426L11.6867 7.02006C11.882 6.8248 11.882 6.50821 11.6867 6.31295C11.4915 6.11769 11.1749 6.11769 10.9796 6.31295L8.5 8.79257V2ZM2 9.5C2.27614 9.5 2.5 9.72386 2.5 10V12.6667C2.5 12.8877 2.5878 13.0996 2.74408 13.2559C2.90036 13.4122 3.11232 13.5 3.33333 13.5H12.6667C12.8877 13.5 13.0996 13.4122 13.2559 13.2559C13.4122 13.0996 13.5 12.8877 13.5 12.6667V10C13.5 9.72386 13.7239 9.5 14 9.5C14.2761 9.5 14.5 9.72386 14.5 10V12.6667C14.5 13.1529 14.3068 13.6192 13.963 13.963C13.6192 14.3068 13.1529 14.5 12.6667 14.5H3.33333C2.8471 14.5 2.38079 14.3068 2.03697 13.963C1.69315 13.6192 1.5 13.1529 1.5 12.6667V10C1.5 9.72386 1.72386 9.5 2 9.5Z" fill="url(#paint0_linear_4531_32650)"/>
<defs>
<linearGradient id="paint0_linear_4531_32650" x1="5.5" y1="16" x2="5.5" y2="2.5" gradientUnits="userSpaceOnUse">
<stop stop-color="#F1533E"/>
<stop offset="1" stop-color="#F9A854"/>
</linearGradient>
</defs>
</svg>
