<svg width="14" height="14" viewBox="0 0 14 14" fill="none" xmlns="http://www.w3.org/2000/svg">
<path d="M7.25874 0.160006C7.08387 0.0919895 6.88986 0.0919895 6.71499 0.160006L1.08999 2.35001C0.948443 2.40462 0.826789 2.50089 0.74109 2.62609C0.655392 2.75129 0.609681 2.89954 0.609991 3.05126V10.9263C0.609388 11.0775 0.654549 11.2255 0.739544 11.3506C0.824539 11.4758 0.945395 11.5723 1.08624 11.6275L6.73374 13.8438C6.90928 13.915 7.1057 13.915 7.28124 13.8438L12.9287 11.6275C13.0696 11.5723 13.1904 11.4758 13.2754 11.3506C13.3604 11.2255 13.4056 11.0775 13.405 10.9263V3.05126C13.4045 2.90017 13.3585 2.75275 13.2728 2.62829C13.1872 2.50383 13.0659 2.40814 12.925 2.35376L7.25874 0.160006ZM6.99999 0.861256L11.9762 2.79251L6.99999 4.72751L2.01249 2.79251L6.99999 0.861256ZM6.62499 13L1.37499 10.9338V3.34376L6.62499 5.41001V13ZM12.6625 10.9338L7.37499 13V5.41001L12.625 3.34376L12.6625 10.9338Z" fill="#27272E"/>
</svg>
