<svg width="20" height="20" viewBox="0 0 20 20" fill="none" xmlns="http://www.w3.org/2000/svg">
<path d="M12.1904 13.229L14.3365 11.5884C14.3965 11.5415 14.3965 11.4507 14.3365 11.4038L12.1904 9.76318C12.1128 9.70166 12 9.75732 12 9.85547V11H7.11719C7.05273 11 7 11.0527 7 11.1172V11.8828C7 11.9473 7.05273 12 7.11719 12H12V13.1367C12 13.2349 12.1143 13.2891 12.1904 13.229ZM16.7261 7.29639L13.3911 5.27393C13 5 13 5 13 5H5.46875C5.20947 5 5 5.20947 5 5.46875V8.87862C5 8.94308 5.05273 8.99581 5.11719 8.99581H5.88281C5.94727 8.99581 6 8.94308 6 8.87862V6H8V7.5C8 7.75928 8.20947 7.96875 8.46875 7.96875H12.5312C12.7905 7.96875 13 7.75928 13 7.5V6.37402L16 8.00684V8.87862C16 8.94308 16.0527 8.99581 16.1172 8.99581H16.8828C16.9473 8.99581 17 8.94308 17 8.87862V7.9585C17 7.70947 16.9019 7.47217 16.7261 7.29639ZM12 7.21875H9V6H12V7.21875ZM16.8828 13.9955H16.1172C16.0527 13.9955 16 14.0482 16 14.1127V15H6V14.1127C6 14.0482 5.94727 13.9955 5.88281 13.9955H5.11719C5.05273 13.9955 5 14.0482 5 14.1127V15.5859C5 15.8452 5.20947 16.0547 5.46875 16.0547H16.5312C16.7905 16.0547 17 15.8452 17 15.5859V14.1127C17 14.0482 16.9473 13.9955 16.8828 13.9955Z" fill="#444444"/>
</svg>
