<svg width="20" height="20" viewBox="0 0 20 20" fill="none" xmlns="http://www.w3.org/2000/svg">
<path d="M13.8095 17H6.19048C4.95238 17 4 15.8571 4 14.619V7.19048C4 5.95238 4.95238 5 6.19048 5L13.8066 5.00001C15.0447 5.00001 16 5.76189 16 6.99999C16 7.38094 15.881 7.5 15.5 7.5C15.119 7.5 15 7.28571 15 7C15 6.42857 14.378 6.00001 13.8066 6.00001L6.19048 6C5.61905 6 5 6.61905 5 7.19048V14.619C5 15.1905 5.61905 16 6.19048 16H13.8095C14.381 16 15 15.5714 15 15C15 14.7143 15.2143 14.5 15.5 14.5C15.7857 14.5 16 14.6667 16 14.9524C16 16.0952 15.0476 17 13.8095 17ZM12.5714 12.5238L10.7619 10.5238C10.5714 10.3333 10.5714 10.0476 10.7619 9.85714C10.9524 9.66667 11.2381 9.66667 11.4286 9.85714L13.2381 11.8571C13.4286 12.0476 13.4286 12.3333 13.2381 12.5238C13.0867 12.6608 12.7244 12.6768 12.5714 12.5238ZM10.5714 12.7143C10.381 12.5238 10.381 12.3333 10.5714 12.1429L13.0476 9.57143C13.2381 9.38095 13.4286 9.38095 13.619 9.57143C13.8095 9.76191 13.8095 9.95238 13.619 10.1429L11.1429 12.7143C11.006 12.8511 10.7083 12.8511 10.5714 12.7143ZM10.1905 7.19048C10.381 7.19048 10.8571 7.28571 10.8571 7.7619C10.8571 8.14286 10.2857 8.04762 10.0952 8.04762C9.23809 8.04762 8.95238 8.52381 8.85714 8.90476L8.66667 10.0476H9.61905C9.80952 10.0476 10 10.2381 10 10.4286C10 10.619 9.80952 10.8095 9.61905 10.8095H8.57143L7.90476 13.7619C7.90476 13.7619 7.80952 14.619 7.2381 14.619C6.66667 14.619 6.95238 13.7619 6.95238 13.7619L7.61905 10.9048H6.7619C6.57143 10.9048 6.38095 10.7143 6.38095 10.5238C6.38095 10.1429 6.57143 10.0476 6.7619 10.0476H7.80952L8.09524 8.80952C8.28571 7.19048 9.71429 7.09524 10.1905 7.19048ZM15.0476 8.90476C15.1429 8.61905 15.3333 8.52381 15.619 8.52381C15.9048 8.61905 16 8.80952 16 9.09524L15.0476 12.9048C14.9524 13.1905 14.7619 13.2857 14.4762 13.2857C14.1905 13.1905 14.0952 13 14.0952 12.7143L15.0476 8.90476Z" fill="#444444"/>
</svg>
