<svg width="117" height="33" viewBox="0 0 117 33" fill="none" xmlns="http://www.w3.org/2000/svg">
<path fill-rule="evenodd" clip-rule="evenodd" d="M13.056 13.5802C13.095 12.2389 13.0169 10.8909 12.7823 9.5561L7.70732 8.37741C10.1829 14.6742 7.72678 21.4005 10.8996 27.6385C11.4533 28.739 13.0299 32.086 14.5674 32.7566C9.53797 31.1157 6.13727 28.0097 4.502 23.7708C2.88633 19.6034 4.69095 15.169 4.12425 10.9039C4.03944 10.2983 3.42055 5.6752 2.44336 5.42774C2.86687 5.5058 9.62922 6.82116 12.2611 7.32909C11.7401 5.53839 10.7237 2.17857 9.02321 1.09766C11.3752 2.37385 13.4599 4.28178 15.0365 6.18313C18.4893 10.3504 18.6782 15.5076 18.9324 20.3784C19.1538 24.5586 19.2841 29.7613 22.9128 32.9845C19.486 31.5129 14.2807 28.7196 13.4989 25.6201C12.4957 21.648 12.9322 17.5978 13.056 13.5802Z" fill="#FF8259"/>
<path fill-rule="evenodd" clip-rule="evenodd" d="M29.4339 27.6387L29.2971 28.4727L27.9355 28.7593L28.0723 27.9253L29.4339 27.6387Z" fill="#FF8259"/>
<path fill-rule="evenodd" clip-rule="evenodd" d="M27.5816 28.8398L27.3405 29.7714L26.3828 29.9734L26.7541 29.0156L27.5816 28.8398Z" fill="#FF8259"/>
<path fill-rule="evenodd" clip-rule="evenodd" d="M26.4331 27.6543L26.1921 28.586L25.2344 28.788L25.6058 27.8304L26.4331 27.6543Z" fill="#FF8259"/>
<path fill-rule="evenodd" clip-rule="evenodd" d="M28.2874 26.4531L28.1506 27.287L26.7891 27.5801L26.9258 26.7462L28.2874 26.4531Z" fill="#FF8259"/>
<path fill-rule="evenodd" clip-rule="evenodd" d="M29.5642 25.7441L28.4957 25.9719L28.5283 24.9366L27.2905 24.9105L27.1928 26.2454L25.5381 26.5971C25.5381 26.5971 28.2938 12.3302 18.2676 8.67079C18.2676 8.67079 31.662 7.68108 29.5642 25.7441Z" fill="#FF8259"/>
<path d="M48.334 1.222V2.77H42.088V3.958H48.334V5.506H42.934V6.64H48.334V8.152H41.116V9.34H46.228C45.274 10.852 43.708 12.148 41.53 13.246L42.376 14.362C43.366 13.822 44.248 13.228 45.022 12.58C45.85 13.462 46.822 14.254 47.938 14.938C46.012 15.748 43.78 16.324 41.224 16.684L41.818 17.89C44.68 17.422 47.164 16.684 49.27 15.658C51.25 16.648 53.608 17.35 56.344 17.782L56.956 16.54C54.544 16.216 52.438 15.676 50.62 14.92C52.096 14.038 53.356 12.976 54.382 11.752V10.708H46.786C47.11 10.276 47.398 9.808 47.65 9.34H56.884V8.152H49.666V6.64H55.066V5.506H49.666V3.958H55.894V2.77H49.666V1.222H48.334ZM45.994 11.914H52.636C51.682 12.814 50.566 13.624 49.288 14.308C47.992 13.642 46.894 12.85 45.994 11.914ZM66.496 12.544L65.614 12.868V3.292H66.892V2.104H60.034V3.292H61.132V14.11L59.746 14.38L60.07 15.604C61.564 15.28 63.022 14.902 64.426 14.47V17.548H65.614V14.092C65.902 13.984 66.19 13.894 66.496 13.786V12.544ZM64.426 13.264C63.742 13.48 63.04 13.66 62.32 13.84V10.798H64.426V13.264ZM62.32 9.646V7.054H64.426V9.646H62.32ZM62.32 5.902V3.292H64.426V5.902H62.32ZM67.36 4.894V10.312H75.064V4.894H72.904C73.48 3.994 74.002 2.95 74.47 1.78L73.246 1.348C72.796 2.608 72.256 3.796 71.644 4.894H67.36ZM73.858 9.16H68.566V6.028H73.858V9.16ZM68.926 1.456L67.846 1.978C68.386 2.788 68.872 3.706 69.34 4.714L70.42 4.192C69.952 3.202 69.466 2.284 68.926 1.456ZM74.56 11.5L73.534 11.95C74.218 13.246 74.848 14.722 75.424 16.396L76.45 15.856C75.91 14.272 75.28 12.814 74.56 11.5ZM67.324 12.058C67.072 13.606 66.694 15.01 66.154 16.288L67.144 16.918C67.684 15.622 68.098 14.056 68.404 12.256L67.324 12.058ZM72.202 17.512C72.778 17.512 73.192 17.386 73.462 17.17C73.768 16.882 73.966 16.09 74.074 14.812L72.994 14.47C72.922 15.406 72.814 15.964 72.652 16.144C72.508 16.288 72.292 16.378 72.004 16.378H70.87C70.492 16.378 70.312 16.18 70.312 15.82V12.022H69.124V16.054C69.124 17.026 69.574 17.512 70.51 17.512H72.202ZM70.906 10.636L70.078 11.266C70.744 12.058 71.428 12.994 72.112 14.092L72.976 13.426C72.346 12.4 71.662 11.464 70.906 10.636ZM82.966 6.334V8.98H80.752C81.238 7.846 81.688 6.532 82.12 5.056H86.818V3.796H82.462C82.642 3.076 82.804 2.302 82.984 1.492L81.742 1.294C81.562 2.158 81.364 3.004 81.184 3.796H79.15V5.056H80.842C80.392 6.64 79.906 7.954 79.402 8.998L79.672 10.15H82.966V12.814C81.778 13.012 80.482 13.192 79.114 13.354L79.276 14.614C80.554 14.452 81.778 14.272 82.966 14.074V17.8H84.244V13.84C85.126 13.66 85.972 13.48 86.782 13.264V12.022C85.99 12.22 85.144 12.4 84.244 12.58V10.15H86.512V8.98H84.244V6.334H82.966ZM88.582 1.15C88.258 4.102 87.52 6.406 86.404 8.062L87.466 8.818C88.114 7.918 88.654 6.748 89.086 5.326H93.64C93.316 6.766 92.902 8.044 92.416 9.178L93.712 9.538C94.252 8.026 94.666 6.478 94.99 4.912V4.084H89.392C89.572 3.256 89.734 2.338 89.86 1.348L88.582 1.15ZM90.076 6.532C90.058 8.872 89.824 10.816 89.392 12.328C88.816 14.128 87.664 15.622 85.918 16.81L86.782 17.854C88.798 16.486 90.094 14.722 90.67 12.562C90.706 12.436 90.724 12.31 90.76 12.184C91.642 14.398 92.92 16.27 94.594 17.8L95.512 16.738C93.46 15.064 92.002 12.796 91.138 9.934C91.246 8.908 91.318 7.774 91.318 6.532H90.076ZM101.956 1.186C101.092 3.994 99.724 6.496 97.816 8.656L98.23 10.042C98.914 9.322 99.544 8.566 100.12 7.774V17.818H101.398V5.794C102.118 4.516 102.712 3.166 103.18 1.744L101.956 1.186ZM104.98 2.374C104.584 4.768 103.846 6.802 102.748 8.458L103.576 9.538C104.242 8.602 104.8 7.54 105.25 6.352H108.31V10.69H103.018V11.932H108.31V17.728H109.606V11.932H114.412V10.69H109.606V6.352H113.746V5.092H109.606V1.348H108.31V5.092H105.664C105.916 4.3 106.114 3.436 106.258 2.536L104.98 2.374Z" fill="#27272E"/>
<path d="M40.8086 31H41.5469V26.1572H41.5952L43.5991 31H44.2671L46.271 26.1572H46.3193V31H47.0576V24.6587H46.1392L43.9683 29.9497H43.8979L41.7271 24.6587H40.8086V31ZM49.8789 31.0835C50.5161 31.0835 51.0127 30.8066 51.3115 30.3013H51.3818V31H52.1465V27.7568C52.1465 26.7725 51.5005 26.1792 50.3447 26.1792C49.334 26.1792 48.6133 26.6802 48.4902 27.4229L48.4858 27.4492H49.2505L49.2549 27.436C49.3779 27.0669 49.7515 26.856 50.3184 26.856C51.0259 26.856 51.3818 27.1724 51.3818 27.7568V28.1875L50.0239 28.271C48.9209 28.3369 48.2969 28.8247 48.2969 29.6685V29.6772C48.2969 30.5386 48.978 31.0835 49.8789 31.0835ZM49.0791 29.6597V29.6509C49.0791 29.1807 49.3955 28.9258 50.1162 28.8818L51.3818 28.8027V29.2334C51.3818 29.9102 50.8149 30.4199 50.0371 30.4199C49.4878 30.4199 49.0791 30.1387 49.0791 29.6597ZM53.9482 25.3486C54.2383 25.3486 54.4756 25.1113 54.4756 24.8213C54.4756 24.5312 54.2383 24.2939 53.9482 24.2939C53.6582 24.2939 53.4209 24.5312 53.4209 24.8213C53.4209 25.1113 53.6582 25.3486 53.9482 25.3486ZM53.5615 31H54.3262V26.2627H53.5615V31ZM57.7056 31.0835C58.8438 31.0835 59.481 30.4727 59.6743 29.6157L59.6831 29.5674L58.9272 29.5718L58.9185 29.5981C58.7427 30.1255 58.3384 30.4067 57.7012 30.4067C56.8574 30.4067 56.3125 29.708 56.3125 28.6182V28.6094C56.3125 27.5415 56.8486 26.856 57.7012 26.856C58.3823 26.856 58.8042 27.2339 58.9229 27.6997L58.9272 27.7129H59.6875L59.6831 27.6865C59.5425 26.8428 58.8525 26.1792 57.7012 26.1792C56.374 26.1792 55.5303 27.1372 55.5303 28.6094V28.6182C55.5303 30.1211 56.3784 31.0835 57.7056 31.0835ZM62.7505 31.0835C64.0996 31.0835 64.9346 30.1519 64.9346 28.6357V28.627C64.9346 27.1064 64.0996 26.1792 62.7505 26.1792C61.4014 26.1792 60.5664 27.1064 60.5664 28.627V28.6357C60.5664 30.1519 61.4014 31.0835 62.7505 31.0835ZM62.7505 30.4067C61.854 30.4067 61.3486 29.752 61.3486 28.6357V28.627C61.3486 27.5063 61.854 26.856 62.7505 26.856C63.647 26.856 64.1523 27.5063 64.1523 28.627V28.6357C64.1523 29.752 63.647 30.4067 62.7505 30.4067ZM66.1211 31H66.8857V28.1963C66.8857 27.3657 67.3647 26.856 68.1206 26.856C68.8765 26.856 69.228 27.2646 69.228 28.1172V31H69.9927V27.9326C69.9927 26.8076 69.3994 26.1792 68.3359 26.1792C67.6372 26.1792 67.1934 26.4736 66.9561 26.9746H66.8857V26.2627H66.1211V31ZM73.3281 32.6699C74.6201 32.6699 75.4375 31.9932 75.4375 30.9341V26.2627H74.6729V27.0449H74.6201C74.3301 26.5088 73.8115 26.1792 73.1436 26.1792C71.9043 26.1792 71.1396 27.1416 71.1396 28.4688V28.4775C71.1396 29.8047 71.8999 30.7539 73.126 30.7539C73.7764 30.7539 74.3125 30.4595 74.6113 29.9365H74.6816V30.8945C74.6816 31.5933 74.1763 31.9932 73.3281 31.9932C72.647 31.9932 72.2251 31.7383 72.1416 31.3779L72.1372 31.3735H71.3462L71.3374 31.3779C71.4561 32.1558 72.1855 32.6699 73.3281 32.6699ZM73.293 30.0771C72.4141 30.0771 71.9219 29.418 71.9219 28.4775V28.4688C71.9219 27.5283 72.4141 26.856 73.293 26.856C74.1675 26.856 74.6992 27.5283 74.6992 28.4688V28.4775C74.6992 29.418 74.1719 30.0771 73.293 30.0771ZM81.5679 31.1494C82.9829 31.1494 83.9102 30.4111 83.9102 29.2246V29.2202C83.9102 28.3062 83.3872 27.7744 82.0645 27.48L81.3613 27.3218C80.5 27.1328 80.1528 26.79 80.1528 26.2847V26.2803C80.1528 25.6167 80.7637 25.2432 81.5547 25.2388C82.3809 25.2344 82.9082 25.6475 82.9961 26.2056L83.0049 26.2627H83.7959L83.7915 26.2012C83.7256 25.2563 82.8423 24.5093 81.5767 24.5093C80.2671 24.5093 79.3486 25.252 79.3442 26.3022V26.3066C79.3442 27.2251 79.8936 27.8096 81.1636 28.0908L81.8667 28.2446C82.7368 28.438 83.1016 28.7983 83.1016 29.3257V29.3301C83.1016 29.9761 82.4731 30.4199 81.6118 30.4199C80.6978 30.4199 80.0386 30.02 79.9814 29.3872L79.9771 29.3389H79.186L79.1904 29.3872C79.2827 30.4199 80.1792 31.1494 81.5679 31.1494ZM87.0786 31.0835C88.4277 31.0835 89.2627 30.1519 89.2627 28.6357V28.627C89.2627 27.1064 88.4277 26.1792 87.0786 26.1792C85.7295 26.1792 84.8945 27.1064 84.8945 28.627V28.6357C84.8945 30.1519 85.7295 31.0835 87.0786 31.0835ZM87.0786 30.4067C86.1821 30.4067 85.6768 29.752 85.6768 28.6357V28.627C85.6768 27.5063 86.1821 26.856 87.0786 26.856C87.9751 26.856 88.4805 27.5063 88.4805 28.627V28.6357C88.4805 29.752 87.9751 30.4067 87.0786 30.4067ZM90.7656 31H91.5303V26.8955H92.6069V26.2627H91.5303V25.7573C91.5303 25.2388 91.75 24.9707 92.2949 24.9707C92.4312 24.9707 92.5586 24.9751 92.6509 24.9927V24.3818C92.4927 24.3511 92.3257 24.3379 92.1411 24.3379C91.2402 24.3379 90.7656 24.7905 90.7656 25.7354V26.2627H89.979V26.8955H90.7656V31ZM95.3931 31.0352C95.5425 31.0352 95.6875 31.0176 95.8369 30.9912V30.3408C95.6963 30.354 95.6216 30.3584 95.4854 30.3584C94.9932 30.3584 94.7998 30.1343 94.7998 29.5762V26.8955H95.8369V26.2627H94.7998V25.0366H94.0088V26.2627H93.2617V26.8955H94.0088V29.7695C94.0088 30.6748 94.4175 31.0352 95.3931 31.0352ZM97.8936 31H98.6582L99.7129 27.335H99.7832L100.842 31H101.611L102.938 26.2627H102.178L101.247 30.0508H101.176L100.117 26.2627H99.3921L98.333 30.0508H98.2627L97.3311 26.2627H96.5664L97.8936 31ZM105.118 31.0835C105.755 31.0835 106.252 30.8066 106.551 30.3013H106.621V31H107.386V27.7568C107.386 26.7725 106.74 26.1792 105.584 26.1792C104.573 26.1792 103.853 26.6802 103.729 27.4229L103.725 27.4492H104.49L104.494 27.436C104.617 27.0669 104.991 26.856 105.558 26.856C106.265 26.856 106.621 27.1724 106.621 27.7568V28.1875L105.263 28.271C104.16 28.3369 103.536 28.8247 103.536 29.6685V29.6772C103.536 30.5386 104.217 31.0835 105.118 31.0835ZM104.318 29.6597V29.6509C104.318 29.1807 104.635 28.9258 105.355 28.8818L106.621 28.8027V29.2334C106.621 29.9102 106.054 30.4199 105.276 30.4199C104.727 30.4199 104.318 30.1387 104.318 29.6597ZM108.783 31H109.548V28.0645C109.548 27.3701 110.066 26.9087 110.796 26.9087C110.963 26.9087 111.108 26.9263 111.266 26.9526V26.21C111.191 26.1968 111.029 26.1792 110.884 26.1792C110.242 26.1792 109.798 26.4692 109.618 26.9658H109.548V26.2627H108.783V31ZM114.013 31.0835C115.129 31.0835 115.806 30.4507 115.968 29.8091L115.977 29.7739H115.212L115.195 29.8135C115.067 30.0991 114.672 30.4023 114.03 30.4023C113.187 30.4023 112.646 29.8311 112.624 28.8511H116.034V28.5522C116.034 27.1372 115.252 26.1792 113.964 26.1792C112.677 26.1792 111.842 27.1812 111.842 28.6445V28.6489C111.842 30.1343 112.659 31.0835 114.013 31.0835ZM113.96 26.8604C114.659 26.8604 115.177 27.3042 115.256 28.2402H112.637C112.721 27.3394 113.257 26.8604 113.96 26.8604Z" fill="#27272E"/>
</svg>
