<svg width="128" height="36" viewBox="0 0 128 36" fill="none" xmlns="http://www.w3.org/2000/svg">
<path d="M60.78 20.52C57.8 20.2 55.46 19.72 53.5 19C55.16 18.12 56.58 17.06 57.9 15.72V14.44H49.14C49.72 13.88 50.24 13.3 50.7 12.76H60.54V11.44H52.54V9.94H58.86V8.62H52.54V7.14H59.52V5.8H52.54V3.96L51.1 3.92V5.8H44.1V7.14H51.1V8.62H44.74V9.94H51.1V11.44H43.06V12.76H48.96C47.54 14.38 45.3 16.14 43.1 17.5L44 18.56C44.98 17.96 46 17.2 47 16.38C48.02 17.42 49.04 18.26 50.22 18.98C48.26 19.68 45.84 20.28 42.92 20.64L43.46 21.98C46.88 21.4 49.58 20.72 51.82 19.78C53.82 20.68 56.4 21.32 60.2 21.88L60.78 20.52ZM48.14 15.72H55.78C54.9 16.62 53.62 17.52 51.86 18.3C50.46 17.62 49.26 16.78 48.14 15.72ZM81.1875 7.16H79.1075C79.6475 6.26 80.2875 5.02 80.6275 4.3L79.3675 3.92C79.0275 4.78 78.2475 6.32 77.6275 7.16H75.7275L76.5275 6.62C76.2475 5.94 75.4875 4.64 75.0675 4.02L74.0075 4.62C74.3475 5.18 75.0275 6.36 75.3475 7.16H73.1875V13.72H81.1875V7.16ZM72.1675 18.04L72.1275 17.38L72.0675 16.6L71.0875 16.82V6.58H72.3275V5.24H65.0675V6.58H66.1675V17.7C65.5675 17.78 65.0075 17.86 64.5475 17.9L64.9075 19.38C66.0875 19.24 68.1075 18.9 69.8675 18.54V22.06H71.0875V18.3L72.1675 18.04ZM69.8675 6.58V9.2H67.3875V6.58H69.8675ZM79.8275 12.4H74.5075V8.48H79.8275V12.4ZM67.3875 10.5H69.8675V13.12H67.3875V10.5ZM77.5875 17.94L78.6275 17.42C78.3475 16.56 77.6275 14.8 77.2075 13.98L76.2075 14.38C76.6075 15.2 77.3475 16.94 77.5875 17.94ZM67.3875 17.5V14.46H69.8675V17.06C69.0675 17.22 68.2075 17.38 67.3875 17.5ZM80.7875 15.18L79.7275 15.72C80.4075 16.86 81.5075 19.32 81.9275 20.7L83.0075 20.06C82.5475 18.78 81.4275 16.34 80.7875 15.18ZM79.0475 19.52C78.9475 20.1 78.6875 20.22 77.9875 20.26C77.5475 20.28 77.0875 20.28 76.6475 20.26C75.9075 20.22 75.7075 20.04 75.7075 19.2V15.26L74.4875 15.2V19.58C74.4875 21.12 74.9875 21.52 76.3275 21.56C76.9275 21.58 77.5275 21.58 78.1275 21.56C79.5475 21.52 79.9475 21.16 80.0875 20.42C80.2275 19.7 80.2875 18.96 80.3275 18.2L79.2075 17.78C79.1475 18.38 79.1475 18.94 79.0475 19.52ZM71.4075 20.4L72.6675 20.84C73.1875 19.6 73.9675 16.94 74.2475 15.56L73.0275 15.36C72.8275 16.76 72.0875 19.3 71.4075 20.4ZM95.675 12.08C96.375 10.84 96.975 9.6 97.495 8.26H102.835C102.435 9.5 101.935 10.74 101.335 11.84L102.615 12.38C103.275 11.1 103.815 9.66 104.275 8.24V6.82H98.035C98.335 5.94 98.635 5 98.895 4.02L97.475 3.82C96.835 6.48 95.815 9.1 94.535 11.3L95.675 12.08ZM95.615 17.34L95.635 16.56V15.96C94.855 16.12 93.795 16.32 92.635 16.52V13.74H95.175V12.36H92.635V9L91.235 8.96V12.36H89.295C89.735 11.32 90.335 9.58 90.855 7.82H95.355V6.4H91.275C91.495 5.56 91.715 4.76 91.855 4.08L90.475 3.86C90.315 4.64 90.115 5.52 89.875 6.4H87.395V7.82H89.475C88.955 9.54 88.355 11.2 87.855 12.34V13.74H91.235V16.74C89.615 17 87.955 17.24 86.755 17.36L87.035 18.74C88.115 18.62 89.675 18.38 91.235 18.14V22.02H92.635V17.9C93.775 17.7 94.835 17.5 95.615 17.34ZM99.835 12.18C99.855 11.98 99.855 11.78 99.855 11.56C99.875 11.16 99.875 9.62 99.875 9.48L98.515 9.44C98.515 9.62 98.515 11.12 98.495 11.52C98.435 15.4 96.975 18.1 93.255 20.82L94.255 22C96.895 19.94 98.495 17.84 99.275 15.42C100.215 18.04 102.075 20.3 104.175 21.9L105.215 20.6C102.375 18.68 100.275 15.7 99.835 12.18ZM127.122 14.28H121.822V9.56H126.282V8.12H121.822V3.94L120.302 3.86V8.12H117.782C118.042 7.16 118.262 6.18 118.442 5.18L116.942 4.86C116.482 7.38 115.582 10.26 114.562 12.42L116.062 12.96C116.542 11.92 116.982 10.78 117.362 9.56H120.302V14.28H114.402V15.72H120.302V22H121.822V15.72H127.122V14.28ZM114.722 4.54L113.162 4.22C112.142 7.7 110.522 10.7 108.642 13.18L109.802 14.16C110.562 13.16 111.222 12.18 111.842 11.14V21.96H113.302V8.34C113.822 7.2 114.282 5.96 114.722 4.54Z" fill="#FF8259"/>
<path d="M44.512 26.7L47.185 31.929L49.858 26.7H50.587V33H49.912V28.014L47.347 33H47.023L44.458 28.014V33H43.783V26.7H44.512ZM54.2202 28.068C55.0122 28.068 55.6182 28.296 56.0382 28.752L56.1732 28.104H56.6772V33H56.1732L56.0382 32.343C55.8282 32.571 55.5702 32.745 55.2642 32.865C54.9642 32.979 54.6162 33.036 54.2202 33.036C53.8362 33.036 53.4942 32.979 53.1942 32.865C52.8942 32.751 52.6392 32.589 52.4292 32.379C52.2252 32.163 52.0662 31.902 51.9522 31.596C51.8442 31.29 51.7902 30.942 51.7902 30.552C51.7902 29.766 52.0032 29.157 52.4292 28.725C52.8552 28.287 53.4522 28.068 54.2202 28.068ZM52.4652 30.552C52.4652 31.164 52.6182 31.629 52.9242 31.947C53.2302 32.259 53.6802 32.415 54.2742 32.415C54.8682 32.415 55.3182 32.259 55.6242 31.947C55.9302 31.629 56.0832 31.164 56.0832 30.552C56.0832 29.934 55.9302 29.469 55.6242 29.157C55.3182 28.845 54.8682 28.689 54.2742 28.689C53.6802 28.689 53.2302 28.845 52.9242 29.157C52.6182 29.469 52.4652 29.934 52.4652 30.552ZM58.2159 28.104H58.8639V33H58.2159V28.104ZM58.1619 26.655C58.1619 26.409 58.2849 26.286 58.5309 26.286C58.6509 26.286 58.7439 26.319 58.8099 26.385C58.8759 26.445 58.9089 26.535 58.9089 26.655C58.9089 26.775 58.8759 26.868 58.8099 26.934C58.7439 27 58.6509 27.033 58.5309 27.033C58.2849 27.033 58.1619 26.907 58.1619 26.655ZM60.1134 30.552C60.1134 29.766 60.3264 29.157 60.7524 28.725C61.1784 28.287 61.7754 28.068 62.5434 28.068C63.1854 28.068 63.7014 28.212 64.0914 28.5C64.4874 28.782 64.7484 29.202 64.8744 29.76H64.1994C63.9834 29.04 63.4344 28.68 62.5524 28.68C61.9704 28.68 61.5294 28.839 61.2294 29.157C60.9294 29.469 60.7794 29.934 60.7794 30.552C60.7794 31.17 60.9294 31.638 61.2294 31.956C61.5294 32.268 61.9704 32.424 62.5524 32.424C63.4344 32.424 63.9834 32.061 64.1994 31.335H64.8744C64.7484 31.899 64.4874 32.325 64.0914 32.613C63.7014 32.895 63.1854 33.036 62.5434 33.036C61.7754 33.036 61.1784 32.82 60.7524 32.388C60.3264 31.95 60.1134 31.338 60.1134 30.552ZM65.7209 30.552C65.7209 29.766 65.9369 29.157 66.3689 28.725C66.8069 28.287 67.4189 28.068 68.2049 28.068C68.9909 28.068 69.5999 28.287 70.0319 28.725C70.4699 29.157 70.6889 29.766 70.6889 30.552C70.6889 31.338 70.4699 31.95 70.0319 32.388C69.5999 32.82 68.9909 33.036 68.2049 33.036C67.4189 33.036 66.8069 32.82 66.3689 32.388C65.9369 31.95 65.7209 31.338 65.7209 30.552ZM68.2049 32.415C68.7989 32.415 69.2489 32.259 69.5549 31.947C69.8609 31.629 70.0139 31.164 70.0139 30.552C70.0139 29.94 69.8609 29.478 69.5549 29.166C69.2489 28.848 68.7989 28.689 68.2049 28.689C67.6109 28.689 67.1609 28.845 66.8549 29.157C66.5489 29.469 66.3959 29.934 66.3959 30.552C66.3959 31.164 66.5489 31.629 66.8549 31.947C67.1609 32.259 67.6109 32.415 68.2049 32.415ZM72.3312 28.113L72.4752 28.752C72.5232 28.704 72.5952 28.641 72.6912 28.563C72.7932 28.485 72.9192 28.41 73.0692 28.338C73.2192 28.266 73.3962 28.203 73.6002 28.149C73.8102 28.095 74.0442 28.068 74.3022 28.068C74.6022 28.068 74.8752 28.11 75.1212 28.194C75.3672 28.272 75.5772 28.395 75.7512 28.563C75.9252 28.725 76.0602 28.935 76.1562 29.193C76.2522 29.445 76.3002 29.748 76.3002 30.102V33H75.6522V30.3C75.6522 30.222 75.6492 30.129 75.6432 30.021C75.6372 29.913 75.6222 29.802 75.5982 29.688C75.5802 29.574 75.5472 29.46 75.4992 29.346C75.4512 29.232 75.3822 29.133 75.2922 29.049C75.1722 28.935 75.0132 28.845 74.8152 28.779C74.6232 28.713 74.4132 28.68 74.1852 28.68C73.9932 28.68 73.8012 28.707 73.6092 28.761C73.4172 28.809 73.2342 28.893 73.0602 29.013C72.9282 29.103 72.8232 29.202 72.7452 29.31C72.6672 29.418 72.6072 29.529 72.5652 29.643C72.5232 29.757 72.4962 29.865 72.4842 29.967C72.4722 30.069 72.4662 30.162 72.4662 30.246V33H71.8182V28.113H72.3312ZM79.9119 28.068C80.0079 28.068 80.1279 28.062 80.2719 28.05C80.4219 28.032 80.5779 27.999 80.7399 27.951C80.9019 27.897 81.0609 27.825 81.2169 27.735C81.3729 27.639 81.5079 27.513 81.6219 27.357L82.0899 27.78C82.0239 27.864 81.9489 27.945 81.8649 28.023C81.7869 28.089 81.6909 28.158 81.5769 28.23C81.4689 28.302 81.3369 28.362 81.1809 28.41C81.5409 28.494 81.8319 28.68 82.0539 28.968C82.2819 29.25 82.3959 29.64 82.3959 30.138C82.3959 30.408 82.3539 30.645 82.2699 30.849C82.1919 31.047 82.0839 31.218 81.9459 31.362C81.8079 31.506 81.6459 31.623 81.4599 31.713C81.2739 31.803 81.0729 31.872 80.8569 31.92C80.9769 31.938 81.1179 31.974 81.2799 32.028C81.4479 32.076 81.6069 32.151 81.7569 32.253C81.9129 32.355 82.0449 32.487 82.1529 32.649C82.2609 32.805 82.3149 33 82.3149 33.234C82.3149 33.54 82.2459 33.795 82.1079 33.999C81.9759 34.209 81.7959 34.377 81.5679 34.503C81.3459 34.629 81.0879 34.719 80.7939 34.773C80.5059 34.833 80.2119 34.863 79.9119 34.863C79.5939 34.863 79.2879 34.827 78.9939 34.755C78.7059 34.683 78.4509 34.569 78.2289 34.413C78.0129 34.263 77.8389 34.071 77.7069 33.837C77.5809 33.603 77.5239 33.324 77.5359 33H78.1569C78.1629 33.24 78.2319 33.453 78.3639 33.639C78.4179 33.717 78.4899 33.792 78.5799 33.864C78.6699 33.942 78.7809 34.008 78.9129 34.062C79.0509 34.122 79.2129 34.167 79.3989 34.197C79.5849 34.233 79.8009 34.245 80.0469 34.233C80.3169 34.227 80.5659 34.194 80.7939 34.134C80.9859 34.086 81.1659 34.008 81.3339 33.9C81.5079 33.798 81.6189 33.651 81.6669 33.459C81.7089 33.285 81.6969 33.135 81.6309 33.009C81.5649 32.889 81.4749 32.787 81.3609 32.703C81.2529 32.619 81.1299 32.553 80.9919 32.505C80.8599 32.451 80.7429 32.412 80.6409 32.388C80.5029 32.352 80.3019 32.316 80.0379 32.28C79.7799 32.244 79.5159 32.202 79.2459 32.154C78.9999 32.106 78.7659 32.034 78.5439 31.938C78.3219 31.842 78.1269 31.713 77.9589 31.551C77.7969 31.389 77.6679 31.194 77.5719 30.966C77.4759 30.732 77.4279 30.456 77.4279 30.138C77.4279 29.748 77.4999 29.421 77.6439 29.157C77.7879 28.893 77.9769 28.68 78.2109 28.518C78.4449 28.356 78.7089 28.242 79.0029 28.176C79.3029 28.104 79.6059 28.068 79.9119 28.068ZM79.9119 31.641C80.1159 31.641 80.3229 31.62 80.5329 31.578C80.7489 31.536 80.9439 31.461 81.1179 31.353C81.2979 31.245 81.4419 31.095 81.5499 30.903C81.6639 30.711 81.7209 30.462 81.7209 30.156C81.7209 29.85 81.6639 29.604 81.5499 29.418C81.4419 29.226 81.2979 29.079 81.1179 28.977C80.9439 28.869 80.7489 28.797 80.5329 28.761C80.3229 28.719 80.1159 28.698 79.9119 28.698C79.7079 28.698 79.4979 28.719 79.2819 28.761C79.0659 28.797 78.8709 28.869 78.6969 28.977C78.5229 29.079 78.3789 29.226 78.2649 29.418C78.1569 29.604 78.1029 29.85 78.1029 30.156C78.1029 30.462 78.1569 30.711 78.2649 30.903C78.3789 31.095 78.5229 31.245 78.6969 31.353C78.8709 31.461 79.0659 31.536 79.2819 31.578C79.4979 31.62 79.7079 31.641 79.9119 31.641ZM85.9445 31.191H86.6915C86.7035 31.287 86.7395 31.404 86.7995 31.542C86.8655 31.68 86.9735 31.815 87.1235 31.947C87.2735 32.073 87.4775 32.181 87.7355 32.271C87.9935 32.361 88.3295 32.406 88.7435 32.406C89.1455 32.406 89.4785 32.364 89.7425 32.28C90.0065 32.196 90.2165 32.076 90.3725 31.92C90.4385 31.848 90.4865 31.773 90.5165 31.695C90.5465 31.611 90.5675 31.533 90.5795 31.461C90.5915 31.377 90.5945 31.293 90.5885 31.209C90.5825 31.149 90.5675 31.071 90.5435 30.975C90.5195 30.879 90.4445 30.78 90.3185 30.678C90.1985 30.576 90.0095 30.477 89.7515 30.381C89.4995 30.285 89.1395 30.204 88.6715 30.138C87.7955 30.018 87.1625 29.808 86.7725 29.508C86.3825 29.202 86.2055 28.794 86.2415 28.284C86.2595 28.032 86.3285 27.807 86.4485 27.609C86.5685 27.405 86.7335 27.234 86.9435 27.096C87.1595 26.952 87.4145 26.844 87.7085 26.772C88.0025 26.694 88.3325 26.655 88.6985 26.655C89.4245 26.661 89.9975 26.829 90.4175 27.159C90.8375 27.489 91.0625 27.936 91.0925 28.5H90.3635C90.3635 28.428 90.3455 28.326 90.3095 28.194C90.2795 28.062 90.2045 27.927 90.0845 27.789C89.9465 27.633 89.7545 27.513 89.5085 27.429C89.2625 27.339 88.9775 27.294 88.6535 27.294C88.1375 27.294 87.7265 27.381 87.4205 27.555C87.1145 27.729 86.9495 27.975 86.9255 28.293C86.9255 28.317 86.9225 28.356 86.9165 28.41C86.9165 28.464 86.9285 28.53 86.9525 28.608C86.9765 28.68 87.0215 28.758 87.0875 28.842C87.1595 28.926 87.2645 29.007 87.4025 29.085C87.5405 29.163 87.7205 29.238 87.9425 29.31C88.1705 29.376 88.4525 29.43 88.7885 29.472C89.3465 29.544 89.7965 29.646 90.1385 29.778C90.4805 29.91 90.7415 30.063 90.9215 30.237C91.1075 30.405 91.2275 30.588 91.2815 30.786C91.3415 30.978 91.3685 31.167 91.3625 31.353C91.3565 31.563 91.2995 31.77 91.1915 31.974C91.0895 32.172 90.9305 32.352 90.7145 32.514C90.5045 32.67 90.2375 32.799 89.9135 32.901C89.5955 32.997 89.2145 33.045 88.7705 33.045C88.4765 33.045 88.1675 33.015 87.8435 32.955C87.5195 32.889 87.2225 32.784 86.9525 32.64C86.6825 32.496 86.4545 32.307 86.2685 32.073C86.0825 31.833 85.9745 31.539 85.9445 31.191ZM92.2023 30.552C92.2023 29.766 92.4183 29.157 92.8503 28.725C93.2883 28.287 93.9003 28.068 94.6863 28.068C95.4723 28.068 96.0813 28.287 96.5133 28.725C96.9513 29.157 97.1703 29.766 97.1703 30.552C97.1703 31.338 96.9513 31.95 96.5133 32.388C96.0813 32.82 95.4723 33.036 94.6863 33.036C93.9003 33.036 93.2883 32.82 92.8503 32.388C92.4183 31.95 92.2023 31.338 92.2023 30.552ZM94.6863 32.415C95.2803 32.415 95.7303 32.259 96.0363 31.947C96.3423 31.629 96.4953 31.164 96.4953 30.552C96.4953 29.94 96.3423 29.478 96.0363 29.166C95.7303 28.848 95.2803 28.689 94.6863 28.689C94.0923 28.689 93.6423 28.845 93.3363 29.157C93.0303 29.469 92.8773 29.934 92.8773 30.552C92.8773 31.164 93.0303 31.629 93.3363 31.947C93.6423 32.259 94.0923 32.415 94.6863 32.415ZM98.3267 27.501C98.3747 27.123 98.5157 26.826 98.7497 26.61C98.9837 26.394 99.2747 26.286 99.6227 26.286C99.8087 26.286 99.9647 26.307 100.091 26.349C100.223 26.385 100.331 26.427 100.415 26.475C100.511 26.535 100.592 26.601 100.658 26.673L100.334 27.159C100.286 27.111 100.205 27.06 100.091 27.006C99.9827 26.946 99.8537 26.916 99.7037 26.916C99.5897 26.916 99.4787 26.937 99.3707 26.979C99.2567 27.027 99.1697 27.093 99.1097 27.177C99.0557 27.261 99.0137 27.345 98.9837 27.429C98.9597 27.531 98.9477 27.636 98.9477 27.744V28.104H100.325V28.68H98.9477V33H98.2997V28.167C98.2997 28.041 98.2997 27.936 98.2997 27.852C98.3057 27.768 98.3117 27.699 98.3177 27.645C98.3177 27.585 98.3207 27.537 98.3267 27.501ZM101.499 31.164V27.096H102.147V28.104H103.524V28.68H102.147V31.587C102.147 31.695 102.159 31.797 102.183 31.893C102.213 31.977 102.255 32.061 102.309 32.145C102.369 32.229 102.456 32.295 102.57 32.343C102.678 32.385 102.789 32.406 102.903 32.406C103.053 32.406 103.182 32.379 103.29 32.325C103.404 32.265 103.485 32.211 103.533 32.163L103.857 32.649C103.791 32.721 103.71 32.784 103.614 32.838C103.53 32.886 103.422 32.931 103.29 32.973C103.164 33.015 103.008 33.036 102.822 33.036C102.474 33.036 102.183 32.928 101.949 32.712C101.715 32.496 101.574 32.199 101.526 31.821C101.52 31.785 101.517 31.737 101.517 31.677C101.511 31.629 101.505 31.563 101.499 31.479C101.499 31.389 101.499 31.284 101.499 31.164ZM104.217 28.104H104.937L106.395 32.055L107.853 28.104H108.285L109.743 32.055L111.201 28.104H111.921L110.013 33H109.464L108.069 29.157L106.665 33H106.116L104.217 28.104ZM114.821 28.068C115.613 28.068 116.219 28.296 116.639 28.752L116.774 28.104H117.278V33H116.774L116.639 32.343C116.429 32.571 116.171 32.745 115.865 32.865C115.565 32.979 115.217 33.036 114.821 33.036C114.437 33.036 114.095 32.979 113.795 32.865C113.495 32.751 113.24 32.589 113.03 32.379C112.826 32.163 112.667 31.902 112.553 31.596C112.445 31.29 112.391 30.942 112.391 30.552C112.391 29.766 112.604 29.157 113.03 28.725C113.456 28.287 114.053 28.068 114.821 28.068ZM113.066 30.552C113.066 31.164 113.219 31.629 113.525 31.947C113.831 32.259 114.281 32.415 114.875 32.415C115.469 32.415 115.919 32.259 116.225 31.947C116.531 31.629 116.684 31.164 116.684 30.552C116.684 29.934 116.531 29.469 116.225 29.157C115.919 28.845 115.469 28.689 114.875 28.689C114.281 28.689 113.831 28.845 113.525 29.157C113.219 29.469 113.066 29.934 113.066 30.552ZM119.194 28.104L119.32 28.743C119.356 28.689 119.41 28.626 119.482 28.554C119.554 28.476 119.65 28.401 119.77 28.329C119.896 28.257 120.046 28.197 120.22 28.149C120.4 28.095 120.61 28.068 120.85 28.068C120.898 28.068 120.949 28.071 121.003 28.077C121.063 28.083 121.111 28.092 121.147 28.104V28.752C120.907 28.722 120.691 28.722 120.499 28.752C120.313 28.782 120.121 28.866 119.923 29.004C119.791 29.1 119.686 29.205 119.608 29.319C119.53 29.427 119.47 29.541 119.428 29.661C119.392 29.775 119.365 29.892 119.347 30.012C119.335 30.132 119.329 30.246 119.329 30.354V33H118.681V28.104H119.194ZM121.795 30.552C121.795 29.766 122.011 29.157 122.443 28.725C122.881 28.287 123.493 28.068 124.279 28.068C124.681 28.068 125.038 28.128 125.35 28.248C125.662 28.368 125.92 28.545 126.124 28.779C126.55 29.277 126.703 29.955 126.583 30.813H122.479V30.849C122.479 31.359 122.638 31.749 122.956 32.019C123.274 32.289 123.715 32.424 124.279 32.424C124.621 32.424 124.93 32.367 125.206 32.253C125.488 32.139 125.722 31.974 125.908 31.758L126.331 32.19C126.109 32.466 125.821 32.676 125.467 32.82C125.119 32.964 124.723 33.036 124.279 33.036C123.493 33.036 122.881 32.82 122.443 32.388C122.011 31.95 121.795 31.338 121.795 30.552ZM122.479 30.291H126.007C126.025 29.799 125.905 29.421 125.647 29.157C125.341 28.839 124.885 28.68 124.279 28.68C123.727 28.68 123.289 28.818 122.965 29.094C122.641 29.364 122.479 29.754 122.479 30.264V30.291Z" fill="#FF8259"/>
<path fill-rule="evenodd" clip-rule="evenodd" d="M13.8713 14.3731C13.9128 12.9472 13.8298 11.5143 13.5806 10.0954L8.18855 8.84247C10.8188 15.536 8.20922 22.6862 11.5803 29.3173C12.1685 30.4871 13.8437 34.045 15.4772 34.7578C10.1336 33.0136 6.52041 29.7118 4.78299 25.2058C3.06637 20.7758 4.98373 16.062 4.38164 11.5282C4.29153 10.8844 3.63397 5.96999 2.59573 5.70693C3.0457 5.78991 10.2305 7.18816 13.0269 7.72809C12.4732 5.82456 11.3934 2.25303 9.58664 1.104C12.0856 2.46062 14.3005 4.48876 15.9756 6.50992C19.6441 10.9398 19.8448 16.422 20.1149 21.5996C20.3501 26.0433 20.4885 31.5738 24.3439 35.0001C20.7031 33.4357 15.1726 30.4664 14.342 27.1716C13.2761 22.9492 13.7399 18.6439 13.8713 14.3731Z" fill="#FF8259"/>
<path fill-rule="evenodd" clip-rule="evenodd" d="M31.2727 29.3174L31.1272 30.2035L29.6807 30.508L29.8259 29.6219L31.2727 29.3174Z" fill="#FF8259"/>
<path fill-rule="evenodd" clip-rule="evenodd" d="M29.3035 30.5938L29.0474 31.5835L28.0299 31.7981L28.4244 30.7805L29.3035 30.5938Z" fill="#FF8259"/>
<path fill-rule="evenodd" clip-rule="evenodd" d="M28.0852 29.334L27.8291 30.3239L26.8116 30.5385L27.2062 29.521L28.0852 29.334Z" fill="#FF8259"/>
<path fill-rule="evenodd" clip-rule="evenodd" d="M30.0544 28.0576L29.909 28.9436L28.4624 29.255L28.6077 28.369L30.0544 28.0576Z" fill="#FF8259"/>
<path fill-rule="evenodd" clip-rule="evenodd" d="M31.411 27.3029L30.2758 27.5452L30.3105 26.4446L28.9953 26.4168L28.8915 27.8359L27.1334 28.2097C27.1334 28.2097 30.0612 13.0439 19.4087 9.15382C19.4087 9.15382 33.6399 8.10175 31.411 27.3029Z" fill="#FF8259"/>
</svg>
