<svg width="13" height="13" viewBox="0 0 13 13" fill="none" xmlns="http://www.w3.org/2000/svg">
<g opacity="0.7">
<path fill-rule="evenodd" clip-rule="evenodd" d="M6.5 12.1875C9.64112 12.1875 12.1875 9.64112 12.1875 6.5C12.1875 3.35888 9.64112 0.8125 6.5 0.8125C3.35888 0.8125 0.8125 3.35888 0.8125 6.5C0.8125 9.64112 3.35888 12.1875 6.5 12.1875ZM6.5 13C10.0899 13 13 10.0899 13 6.5C13 2.91015 10.0899 0 6.5 0C2.91015 0 0 2.91015 0 6.5C0 10.0899 2.91015 13 6.5 13Z" fill="#27272E"/>
<path d="M5.68848 8.9375C5.68848 8.48877 6.05225 8.125 6.50098 8.125C6.94971 8.125 7.31348 8.48877 7.31348 8.9375C7.31348 9.38623 6.94971 9.75 6.50098 9.75C6.05225 9.75 5.68848 9.38623 5.68848 8.9375Z" fill="#27272E"/>
<path d="M5.76807 4.05847C5.72479 3.62561 6.0647 3.25 6.49972 3.25C6.93475 3.25 7.27466 3.62561 7.23138 4.05847L6.9464 6.90827C6.92345 7.13774 6.73035 7.3125 6.49972 7.3125C6.2691 7.3125 6.076 7.13775 6.05305 6.90827L5.76807 4.05847Z" fill="#27272E"/>
</g>
</svg>
