<svg width="13" height="13" viewBox="0 0 13 13" fill="none" xmlns="http://www.w3.org/2000/svg">
<g opacity="0.7">
<path fill-rule="evenodd" clip-rule="evenodd" d="M11.375 1.625H1.625C1.17627 1.625 0.8125 1.98877 0.8125 2.4375V10.5625C0.8125 11.0112 1.17627 11.375 1.625 11.375H11.375C11.8237 11.375 12.1875 11.0112 12.1875 10.5625V2.4375C12.1875 1.98877 11.8237 1.625 11.375 1.625ZM1.625 0.8125C0.727537 0.8125 0 1.54004 0 2.4375V10.5625C0 11.46 0.727537 12.1875 1.625 12.1875H11.375C12.2725 12.1875 13 11.46 13 10.5625V2.4375C13 1.54004 12.2725 0.8125 11.375 0.8125H1.625Z" fill="#27272E"/>
<path fill-rule="evenodd" clip-rule="evenodd" d="M4.875 7.3125C4.875 7.08813 5.05688 6.90625 5.28125 6.90625H7.71875C7.94312 6.90625 8.125 7.08813 8.125 7.3125C8.125 7.53687 7.94312 7.71875 7.71875 7.71875H5.28125C5.05688 7.71875 4.875 7.53687 4.875 7.3125Z" fill="#27272E"/>
<path fill-rule="evenodd" clip-rule="evenodd" d="M2.55649 3.36899C2.71514 3.21034 2.97236 3.21034 3.13101 3.36899L4.75601 4.99399C4.91466 5.15264 4.91466 5.40986 4.75601 5.56851L3.13101 7.19351C2.97236 7.35216 2.71514 7.35216 2.55649 7.19351C2.39784 7.03486 2.39784 6.77764 2.55649 6.61899L3.89423 5.28125L2.55649 3.94351C2.39784 3.78486 2.39784 3.52764 2.55649 3.36899Z" fill="#27272E"/>
</g>
</svg>
