<svg width="14" height="14" viewBox="0 0 14 14" fill="none" xmlns="http://www.w3.org/2000/svg">
<g opacity="0.7">
<path d="M1.82031 0.820312C1.26803 0.820312 0.820312 1.26803 0.820312 1.82031V9.44531C0.820312 9.9976 1.26803 10.4453 1.82031 10.4453H5.80645C5.60957 10.0023 5.50566 9.51836 5.50566 9.01934C5.50566 8.6666 5.55762 8.3207 5.65742 7.99258V7.53867H5.83105C5.97871 7.22285 6.17285 6.92754 6.41211 6.66367H5.65742V4.60332H8.71582V5.51934C8.81699 5.51113 8.91816 5.50566 9.0207 5.50566C9.21484 5.50566 9.40625 5.52207 9.59492 5.55215V4.60332H12.1926V6.66367H11.6279C12.2131 7.31035 12.5344 8.14023 12.5344 9.01934C12.5344 9.49922 12.4387 9.9668 12.2541 10.3975L12.302 10.4453C12.7263 10.4453 13.0703 10.1013 13.0703 9.67695V1.82031C13.0703 1.26803 12.6226 0.820312 12.0703 0.820312H1.82031ZM4.77969 9.57168H1.69805V7.53867H4.77969V9.57168ZM4.77969 6.66367H1.69805V4.60332H4.77969V6.66367ZM4.77969 3.72832H1.69805V1.69531H4.77969V3.72832ZM8.71582 3.72832H5.65742V1.69531H8.71582V3.72832ZM12.1926 3.72832H9.59492V1.69531H12.1926V3.72832Z" fill="#27272E"/>
<path d="M12.176 11.5566L11.1697 10.5518C11.4869 10.1074 11.6592 9.57695 11.6592 9.02051C11.6592 8.31504 11.3844 7.65332 10.8867 7.1543C10.3877 6.65527 9.72598 6.38184 9.02051 6.38184C8.31504 6.38184 7.65332 6.65664 7.1543 7.1543C6.65527 7.65332 6.38184 8.31504 6.38184 9.02051C6.38184 9.72598 6.65664 10.3877 7.1543 10.8867C7.65332 11.3857 8.31504 11.6592 9.02051 11.6592C9.57695 11.6592 10.1074 11.4883 10.5518 11.1711L11.558 12.1773C11.6428 12.2621 11.7549 12.3059 11.867 12.3059C11.9791 12.3059 12.0912 12.2635 12.176 12.1773C12.3469 12.0051 12.3469 11.7275 12.176 11.5566ZM9.02051 10.7842C8.04844 10.7842 7.25684 9.99258 7.25684 9.02051C7.25684 8.04844 8.04844 7.25684 9.02051 7.25684C9.99258 7.25684 10.7842 8.04844 10.7842 9.02051C10.7842 9.99258 9.99258 10.7842 9.02051 10.7842Z" fill="#27272E"/>
</g>
</svg>
