<svg width="13" height="12" viewBox="0 0 13 12" fill="none" xmlns="http://www.w3.org/2000/svg">
<path opacity="0.7" d="M11.8533 1.58946L11.0929 2.18704C10.0561 0.855031 8.44354 0 6.63281 0C3.50618 0 0.975485 2.5407 0.97144 5.6844C0.967396 8.83081 3.50349 11.3824 6.63281 11.3824C9.07722 11.3824 11.1603 9.82405 11.9531 7.64108C11.9733 7.58417 11.9436 7.52048 11.887 7.50151C11.8304 7.48254 11.1225 7.23728 11.1225 7.23728C11.0673 7.21831 11.0066 7.24676 10.9864 7.30232C10.9621 7.37007 10.9351 7.43783 10.9068 7.50422C10.6736 8.05979 10.3392 8.55844 9.91315 8.98664C9.4871 9.41483 8.99093 9.75088 8.43949 9.98666C7.86917 10.2292 7.26111 10.3525 6.63551 10.3525C6.00857 10.3525 5.40185 10.2292 4.83153 9.98666C4.28009 9.75224 3.78393 9.41619 3.35787 8.98664C2.93182 8.55844 2.59745 8.05979 2.3642 7.50422C2.12286 6.92968 2.00017 6.31992 2.00017 5.68982C2.00017 5.05973 2.12286 4.44996 2.3642 3.87542C2.59745 3.31985 2.93182 2.8212 3.35787 2.393C3.78393 1.96481 4.28009 1.62876 4.83153 1.39298C5.40185 1.15043 6.00991 1.02712 6.63551 1.02712C7.26245 1.02712 7.86917 1.15043 8.43949 1.39298C8.99093 1.62741 9.4871 1.96346 9.91315 2.393C10.0466 2.52715 10.172 2.66943 10.288 2.81849L9.47631 3.45536C9.40485 3.51091 9.42912 3.62474 9.51676 3.64642L11.8843 4.22909C11.9517 4.24535 12.0178 4.19385 12.0178 4.12475L12.0286 1.67348C12.0272 1.58404 11.9234 1.53391 11.8533 1.58946Z" fill="#27272E"/>
</svg>
