<svg width="26" height="26" viewBox="0 0 26 26" fill="none" xmlns="http://www.w3.org/2000/svg">
<rect y="4" width="2" height="6" rx="1" transform="rotate(-45 0 4)" fill="#DFE0E1"/>
<rect width="2" height="6" rx="1" transform="matrix(-0.707107 -0.707107 -0.707107 0.707107 26 4)" fill="#DFE0E1"/>
<rect x="12" width="2" height="6" rx="1" fill="#DFE0E1"/>
<path fill-rule="evenodd" clip-rule="evenodd" d="M8.09352 11.5C7.84669 11.5 7.61325 11.6122 7.45906 11.8049L2.50301 17H9.75C10.1987 17 10.5625 17.3638 10.5625 17.8125C10.5625 19.1587 11.6538 20.25 13 20.25C14.3462 20.25 15.4375 19.1587 15.4375 17.8125C15.4375 17.3638 15.8013 17 16.25 17H23.497L18.5409 11.8049C18.3868 11.6122 18.1533 11.5 17.9065 11.5H8.09352ZM6.19015 10.7898C6.65272 10.2116 7.35305 9.875 8.09352 9.875H17.9065C18.647 9.875 19.3473 10.2116 19.8099 10.7898L25.822 17.3049C25.959 17.4762 26.0209 17.6956 25.9937 17.9133V22.9898C26 24.5 25.0581 25.125 22.9405 25.125H2.05952C0.830236 25.125 0 24 0.00627759 22.9898V17.9133C-0.0209291 17.6956 0.041022 17.4762 0.178047 17.3049L6.19015 10.7898Z" fill="#DFE0E1"/>
</svg>
