<svg width="56" height="52" viewBox="0 0 56 52" fill="none" xmlns="http://www.w3.org/2000/svg">
<path d="M7.014 40.616C6.37 40.672 5.684 40.728 4.956 40.784V39.678H7.14V38.852H4.956V37.928H4.032V38.852H2.408C2.758 38.39 3.094 37.858 3.402 37.27H7.238V36.374H3.822C3.934 36.122 4.032 35.87 4.13 35.618L3.122 35.45C3.01 35.758 2.884 36.066 2.758 36.374H0.812V37.27H2.31C1.974 37.9 1.596 38.432 1.204 38.88L1.428 39.678H4.032V40.84C3.08 40.896 2.058 40.938 0.994 40.994L1.12 41.89C2.128 41.834 3.108 41.764 4.032 41.708V42.716H4.956V41.638C5.67 41.568 6.356 41.498 7.014 41.442V40.616ZM8.974 39.692H10.794V42.73H11.76V39.692H13.244V38.81H9.044V37.354C10.556 37.186 11.816 36.864 12.852 36.416L12.208 35.66C11.228 36.108 9.856 36.416 8.12 36.584V38.782C8.092 40.042 7.756 41.12 7.14 42.03L7.84 42.758C8.442 41.89 8.82 40.868 8.974 39.692ZM11.676 43.136H2.492V48.4H3.528V47.854H10.64V48.4H11.676V43.136ZM3.528 46.986V45.894H10.64V46.986H3.528ZM3.528 45.082V43.99H10.64V45.082H3.528ZM15.862 36.318V37.298H19.88V38.236C19.866 39.104 19.81 39.93 19.698 40.686H14.924V41.652H19.53C19.348 42.534 19.096 43.332 18.76 44.032C18.004 45.46 16.674 46.594 14.742 47.462L15.302 48.358C17.248 47.518 18.648 46.328 19.516 44.816C19.992 43.92 20.342 42.87 20.566 41.652H21.7V46.748C21.7 47.7 22.148 48.176 23.072 48.176H25.34C25.928 48.176 26.348 48.05 26.614 47.798C26.922 47.49 27.132 46.664 27.244 45.292L26.292 44.984C26.222 46.076 26.096 46.72 25.9 46.944C25.746 47.126 25.494 47.224 25.158 47.224H23.38C22.932 47.224 22.708 46.986 22.708 46.538V41.652H27.048V40.686H20.72C20.818 39.93 20.874 39.104 20.902 38.236V37.298H25.914V36.318H15.862ZM37.212 38.67H39.284C39.228 40.56 38.934 42.212 38.374 43.64C37.814 42.45 37.366 41.05 37.016 39.426C37.072 39.174 37.142 38.922 37.212 38.67ZM37.926 44.634C37.282 45.824 36.428 46.79 35.336 47.546L35.854 48.386C36.904 47.63 37.772 46.692 38.444 45.572C39.144 46.748 39.984 47.7 40.964 48.4L41.51 47.574C40.502 46.888 39.648 45.922 38.92 44.676C39.704 43.01 40.138 41.008 40.208 38.67H41.118V37.704H37.422C37.534 37.088 37.646 36.416 37.73 35.702L36.75 35.534C36.47 38.194 35.91 40.308 35.084 41.876L35.714 42.646C36.008 42.142 36.288 41.568 36.54 40.924C36.918 42.324 37.38 43.556 37.926 44.634ZM31.29 42.072C31.192 42.352 31.08 42.646 30.954 42.954H28.91V43.836H30.562C30.282 44.396 29.96 44.97 29.596 45.586C30.282 45.838 30.926 46.104 31.542 46.37C30.73 46.832 29.736 47.21 28.588 47.518L29.064 48.358C30.464 47.966 31.626 47.448 32.55 46.804C33.376 47.168 34.09 47.546 34.706 47.91L35.252 47.126C34.636 46.79 33.992 46.482 33.32 46.174C34.048 45.502 34.566 44.704 34.874 43.78V42.954H31.948C32.032 42.702 32.13 42.45 32.228 42.184L31.29 42.072ZM32.396 45.782C31.892 45.572 31.36 45.376 30.8 45.18C31.08 44.76 31.332 44.312 31.556 43.836H33.964C33.628 44.564 33.096 45.222 32.396 45.782ZM30.016 35.828L29.218 36.094C29.554 36.626 29.862 37.228 30.156 37.914L30.884 37.578C30.632 36.962 30.352 36.374 30.016 35.828ZM34.272 35.786C34.02 36.374 33.656 36.962 33.208 37.564L33.922 37.928C34.37 37.34 34.72 36.738 35 36.122L34.272 35.786ZM28.938 38.25V39.132H30.926C30.506 39.902 29.75 40.602 28.672 41.232L29.162 42.044C30.366 41.232 31.206 40.28 31.668 39.174V41.834H32.606V40.014C33.11 40.35 33.712 40.798 34.412 41.358L34.93 40.574C34.146 40.098 33.362 39.664 32.606 39.286V39.132H35.154V38.25H32.606V35.576H31.668V38.25H28.938ZM44.296 48.274C45.08 48.274 45.472 47.854 45.472 47.028V42.954C45.906 42.758 46.34 42.562 46.774 42.338V41.344C46.354 41.568 45.92 41.778 45.472 41.974V39.216H46.816V38.25H45.472V35.604H44.492V38.25H42.812V39.216H44.492V42.38C43.876 42.604 43.232 42.8 42.588 42.954L42.84 43.934C43.386 43.766 43.932 43.57 44.492 43.36V46.776C44.492 47.182 44.31 47.392 43.96 47.392C43.624 47.392 43.26 47.364 42.896 47.322L43.106 48.274H44.296ZM48.482 42.086H51.338V43.808H49V48.4H49.938V47.714H53.732V48.4H54.67V43.808H52.318V42.086H55.314V41.176H52.318V39.524H54.95V36.122H47.572V40.504C47.558 43.444 47.054 45.852 46.06 47.7L46.844 48.4C47.768 46.58 48.314 44.48 48.482 42.086ZM51.338 39.524V41.176H48.538C48.538 40.952 48.552 40.728 48.552 40.504V39.524H51.338ZM49.938 46.818V44.704H53.732V46.818H49.938ZM53.97 37.06V38.614H48.552V37.06H53.97Z" fill="#27272E"/>
<rect opacity="0.4" x="15" y="4" width="2" height="6" rx="1" transform="rotate(-45 15 4)" fill="#B0B1B4"/>
<rect opacity="0.4" width="2" height="6" rx="1" transform="matrix(-0.707107 -0.707107 -0.707107 0.707107 41 4)" fill="#B0B1B4"/>
<rect opacity="0.4" x="27" width="2" height="6" rx="1" fill="#B0B1B4"/>
<g opacity="0.4">
<path fill-rule="evenodd" clip-rule="evenodd" d="M23.0935 11.5C22.8467 11.5 22.6133 11.6122 22.4591 11.8049L17.503 17H24.75C25.1987 17 25.5625 17.3638 25.5625 17.8125C25.5625 19.1587 26.6538 20.25 28 20.25C29.3462 20.25 30.4375 19.1587 30.4375 17.8125C30.4375 17.3638 30.8013 17 31.25 17H38.497L33.5409 11.8049C33.3868 11.6122 33.1533 11.5 32.9065 11.5H23.0935ZM21.1902 10.7898C21.6527 10.2116 22.353 9.875 23.0935 9.875H32.9065C33.647 9.875 34.3473 10.2116 34.8099 10.7898L40.822 17.3049C40.959 17.4762 41.0209 17.6956 40.9937 17.9133V22.9898C41 24.5 40.0581 25.125 37.9405 25.125H17.0595C15.8302 25.125 15 24 15.0063 22.9898V17.9133C14.9791 17.6956 15.041 17.4762 15.178 17.3049L21.1902 10.7898Z" fill="#ADADAD"/>
</g>
</svg>
