<svg width="34" height="34" viewBox="0 0 34 34" fill="none" xmlns="http://www.w3.org/2000/svg">
<circle opacity="0.6" cx="17" cy="17" r="17" fill="#ADADAD"/>
<path fill-rule="evenodd" clip-rule="evenodd" d="M16.9994 0C26.3885 0 34 7.58476 34 16.9398C34 21.2493 32.3845 25.1816 29.7256 28.1713C26.4891 25.0879 20.7121 25.7763 20.646 20.7088C22.1954 19.2943 22.0658 18.5307 23.0718 17.2441C23.2724 16.9879 23.5571 16.913 23.7969 16.5843C24.3522 15.8234 24.9787 13.7881 23.7584 13.3078C23.2147 13.0936 22.8726 13.5649 23.1365 12.7684C23.4625 11.785 23.6474 11.5 23.6589 10.8058C23.6867 9.12209 23 9 23.4995 8.30319C24.3166 7.57299 24.5 6 24.3166 5.04744C24.3221 4.9653 23.4995 5.5 23 5.5C20.3028 5.5 18.4039 3.81376 16.0938 5.06238C15.6258 5.31548 15.0604 6.12551 14.7522 6.03355C11.1899 4.96866 10.6176 8.2221 10.7783 10.9473C10.8223 11.6933 10.8955 12.3483 10.9335 12.71C11.029 13.6108 10.4212 12.8097 9.84533 13.3298C9.27147 13.848 9.49095 15.5743 9.94452 16.1643C10.2451 16.5544 10.7245 16.7638 11.0394 17.085C11.7265 17.7859 11.7904 18.8734 13.3566 20.4783C13.314 26.1056 7.79166 24.8167 4.27441 28.1712C4.27441 28.1712 0 24.8266 0 16.9397C0 7.58416 7.61129 0 16.9994 0Z" fill="#EAF1FF"/>
</svg>
