<svg width="36" height="36" viewBox="0 0 36 36" fill="none" xmlns="http://www.w3.org/2000/svg">
<path fill-rule="evenodd" clip-rule="evenodd" d="M4.28526 18.2867C6.4313 21.4769 9.22664 24.194 12.4819 26.2485C13.1165 26.8293 13.8433 27.3108 14.6379 27.6685C14.9142 29.5898 15.6933 31.3487 16.8374 32.8075C17.1799 33.262 17.5627 33.6842 17.9805 34.0691H17.9776C10.3399 34.0691 4.14841 27.8775 4.14841 20.2399C4.14841 19.5769 4.19506 18.9248 4.28526 18.2867Z" fill="url(#paint0_linear_72_5)"/>
<path opacity="0.2" fill-rule="evenodd" clip-rule="evenodd" d="M4.28526 18.2867C6.4313 21.4769 9.22664 24.194 12.4819 26.2485C13.1165 26.8293 13.8433 27.3108 14.6379 27.6685C14.9142 29.5898 15.6933 31.3487 16.8374 32.8075C17.1799 33.262 17.5627 33.6842 17.9805 34.0691H17.9776C10.3399 34.0691 4.14841 27.8775 4.14841 20.2399C4.14841 19.5769 4.19506 18.9248 4.28526 18.2867Z" fill="url(#paint1_linear_72_5)"/>
<path d="M14.5268 7.78379L4.47273 17.5135C4.79706 12.3243 4.79706 4.21623 4.14841 0C5.59375 2.40892 11.7994 7.37816 14.5268 7.78379Z" fill="url(#paint2_linear_72_5)"/>
<path d="M21.4673 7.78379L31.5214 17.5135C31.1971 12.3243 31.1971 4.21623 31.8457 0C30.4004 2.40892 24.1948 7.37816 21.4673 7.78379Z" fill="url(#paint3_linear_72_5)"/>
<path opacity="0.5" d="M14.5268 7.78379L4.47273 17.5135C4.79706 12.3243 4.79706 4.21623 4.14841 0C5.59375 2.40892 11.7994 7.37816 14.5268 7.78379Z" fill="url(#paint4_linear_72_5)"/>
<path opacity="0.5" d="M21.4673 7.78379L31.5214 17.5135C31.1971 12.3243 31.1971 4.21623 31.8457 0C30.4004 2.40892 24.1948 7.37816 21.4673 7.78379Z" fill="url(#paint5_linear_72_5)"/>
<path fill-rule="evenodd" clip-rule="evenodd" d="M9.83481 20.24C9.83481 21.9737 10.3767 23.5809 11.3003 24.9015C8.57271 22.9283 6.22692 20.4599 4.39474 17.6281C5.6159 11.2393 11.2329 6.41077 17.9777 6.41077C25.6153 6.41077 31.8069 12.6023 31.8069 20.24C31.8069 20.5615 31.7959 20.8805 31.7743 21.1966C29.4465 18.2495 26.5296 15.7892 23.2015 13.9933C21.7876 12.8096 19.9658 12.0971 17.9777 12.0971C13.4805 12.0971 9.83481 15.7428 9.83481 20.24Z" fill="url(#paint6_linear_72_5)"/>
<path opacity="0.3" fill-rule="evenodd" clip-rule="evenodd" d="M9.83481 20.24C9.83481 21.9737 10.3767 23.5809 11.3003 24.9015C8.57271 22.9283 6.22692 20.4599 4.39474 17.6281C5.6159 11.2393 11.2329 6.41077 17.9777 6.41077C25.6153 6.41077 31.8069 12.6023 31.8069 20.24C31.8069 20.5615 31.7959 20.8804 31.7743 21.1965C29.4464 18.2493 26.5295 15.789 23.2012 13.9931C21.7874 12.8096 19.9657 12.0971 17.9777 12.0971C13.4805 12.0971 9.83481 15.7428 9.83481 20.24Z" fill="url(#paint7_linear_72_5)"/>
<path fill-rule="evenodd" clip-rule="evenodd" d="M24.4237 15.2264C25.4941 16.6065 26.1314 18.3395 26.1314 20.2213C26.1314 22.1221 25.4812 23.871 24.3912 25.2578C23.1742 26.811 21.4052 27.9109 19.3795 28.2623L19.378 28.2578C18.9221 28.3368 18.4532 28.378 17.9746 28.378C17.295 28.378 16.6349 28.2949 16.0037 28.1383C16.1694 28.9899 16.446 29.8019 16.8181 30.5584C17.2985 31.6211 17.9976 32.5637 18.858 33.3289C20.6023 34.9842 22.9597 35.9997 25.5542 35.9997C26.1467 35.9997 26.7267 35.9468 27.2899 35.8454C27.5095 35.8225 27.7279 35.7541 27.9314 35.6366C28.707 35.1888 28.9728 34.197 28.525 33.4214C28.1588 32.7871 27.4287 32.4938 26.7506 32.6529L26.7492 32.6467C26.3619 32.7188 25.9625 32.7565 25.5543 32.7565C25.0792 32.7565 24.616 32.7054 24.17 32.6085C28.2405 30.5667 31.1635 26.5748 31.7133 21.8584C29.7112 19.2293 27.2397 16.977 24.4237 15.2264Z" fill="url(#paint8_linear_72_5)"/>
<path opacity="0.2" fill-rule="evenodd" clip-rule="evenodd" d="M24.4234 15.2264C25.4939 16.6066 26.1313 18.3396 26.1313 20.2215C26.1313 22.1374 25.4707 23.8991 24.3649 25.2911C23.1488 26.8268 21.3905 27.9136 19.3792 28.2625L19.3778 28.258C18.9219 28.3371 18.453 28.3783 17.9745 28.3783C17.2949 28.3783 16.6346 28.2952 16.0034 28.1385C16.1693 28.9915 16.4467 29.8046 16.8196 30.5622C17.2995 31.6224 17.9971 32.563 18.8555 33.327C20.6 34.9835 22.9583 35.9999 25.554 35.9999C26.1463 35.9999 26.7263 35.947 27.2895 35.8456C27.5091 35.8227 27.7277 35.7543 27.9313 35.6368C28.7069 35.189 28.9726 34.1972 28.5248 33.4216C28.1586 32.7872 27.4285 32.4939 26.7504 32.6531L26.7489 32.6468C26.3616 32.719 25.9622 32.7567 25.554 32.7567C25.0789 32.7567 24.6158 32.7056 24.1698 32.6087C28.2403 30.5669 31.1634 26.5749 31.7132 21.8585C29.711 19.2293 27.2394 16.977 24.4234 15.2264Z" fill="url(#paint9_linear_72_5)"/>
<path fill-rule="evenodd" clip-rule="evenodd" d="M17.1485 20.1486L18.0223 18.8378L18.8962 20.1486L18.0223 21.4594L17.1485 20.1486ZM16.8859 20.5425L14.5268 24.0812H16.2745L17.7598 21.8533L16.8859 20.5425ZM19.1588 19.7548L21.5178 16.2163H19.77L18.2849 18.444L19.1588 19.7548Z" fill="url(#paint10_linear_72_5)"/>
<path d="M16.2745 16.2163H14.5268L19.77 24.0812H21.5178L16.2745 16.2163Z" fill="url(#paint11_linear_72_5)"/>
<defs>
<linearGradient id="paint0_linear_72_5" x1="4.14841" y1="18.8109" x2="18.0943" y2="34.0541" gradientUnits="userSpaceOnUse">
<stop offset="0.329249" stop-color="#2E56E5"/>
<stop offset="1" stop-color="#9380F3"/>
</linearGradient>
<linearGradient id="paint1_linear_72_5" x1="9.01327" y1="26.2703" x2="15.1754" y2="32.1082" gradientUnits="userSpaceOnUse">
<stop stop-color="#8D7CF3"/>
<stop offset="1" stop-color="#5D65F1"/>
</linearGradient>
<linearGradient id="paint2_linear_72_5" x1="8.0403" y1="-1.62162" x2="8.0403" y2="14.5946" gradientUnits="userSpaceOnUse">
<stop stop-color="#80C8E7"/>
<stop offset="1" stop-color="#005DE9"/>
</linearGradient>
<linearGradient id="paint3_linear_72_5" x1="27.9538" y1="-1.62162" x2="27.9538" y2="14.5946" gradientUnits="userSpaceOnUse">
<stop stop-color="#80C8E7"/>
<stop offset="1" stop-color="#005DE9"/>
</linearGradient>
<linearGradient id="paint4_linear_72_5" x1="8.0403" y1="-1.62162" x2="8.0403" y2="14.5946" gradientUnits="userSpaceOnUse">
<stop stop-color="#8F7DF3"/>
<stop offset="1" stop-color="#6067F1"/>
</linearGradient>
<linearGradient id="paint5_linear_72_5" x1="27.9538" y1="-1.62162" x2="27.9538" y2="14.5946" gradientUnits="userSpaceOnUse">
<stop stop-color="#8F7DF3"/>
<stop offset="1" stop-color="#6067F1"/>
</linearGradient>
<linearGradient id="paint6_linear_72_5" x1="30.4188" y1="14.919" x2="7.06735" y2="21.0812" gradientUnits="userSpaceOnUse">
<stop stop-color="#6E6EF1"/>
<stop offset="1" stop-color="#005DE9"/>
</linearGradient>
<linearGradient id="paint7_linear_72_5" x1="9.66197" y1="15.892" x2="7.06735" y2="21.0812" gradientUnits="userSpaceOnUse">
<stop stop-color="#6F79F3"/>
<stop offset="1" stop-color="#777FF3"/>
</linearGradient>
<linearGradient id="paint8_linear_72_5" x1="19.7414" y1="30.8542" x2="25.2329" y2="17.1152" gradientUnits="userSpaceOnUse">
<stop stop-color="#B9ACFF"/>
<stop offset="0.945224" stop-color="#626AF1"/>
</linearGradient>
<linearGradient id="paint9_linear_72_5" x1="17.7702" y1="29.8378" x2="27.3608" y2="17.4479" gradientUnits="userSpaceOnUse">
<stop offset="0.485093" stop-color="#6168F1"/>
<stop offset="1" stop-color="#686AF1"/>
</linearGradient>
<linearGradient id="paint10_linear_72_5" x1="14.5268" y1="16.4775" x2="21.4671" y2="24.1713" gradientUnits="userSpaceOnUse">
<stop offset="0.329249" stop-color="#2E82E5"/>
<stop offset="1" stop-color="#44D0BF"/>
</linearGradient>
<linearGradient id="paint11_linear_72_5" x1="21.5178" y1="16.4775" x2="14.5775" y2="24.1713" gradientUnits="userSpaceOnUse">
<stop offset="0.329249" stop-color="#2E82E5"/>
<stop offset="1" stop-color="#44D0BF"/>
</linearGradient>
</defs>
</svg>
